<svg width="138" height="31" viewBox="0 0 138 31" fill="none" xmlns="http://www.w3.org/2000/svg">
<g clip-path="url(#clip0_1_82)" filter="url(#filter0_d_1_82)">
<path fill-rule="evenodd" clip-rule="evenodd" d="M12.6007 27.5595C20.0952 29.4282 27.6849 24.8677 29.5531 17.3739C31.4214 9.87979 26.8614 2.2886 19.3674 0.420303C11.8751 -1.44799 4.28537 3.11302 2.41799 10.6076C0.548857 18.1009 5.10934 25.6912 12.6007 27.5595ZM19.0762 8.46854C21.014 9.13604 22.4311 10.1366 22.1527 11.9979C21.9512 13.3605 21.1958 14.0201 20.1931 14.2513C21.57 14.9682 22.2707 16.0676 21.6032 17.9735C20.7749 20.3405 18.807 20.5403 16.1899 20.045L15.5548 22.5905L14.0201 22.208L14.6469 19.6967C14.2491 19.5979 13.8426 19.493 13.4238 19.3793L12.7948 21.9024L11.2618 21.5199L11.897 18.9697C11.7537 18.933 11.6095 18.8954 11.4644 18.8576C11.2463 18.8007 11.0259 18.7432 10.8029 18.6873L8.80565 18.1894L9.56755 16.4326C9.56755 16.4326 10.6984 16.7333 10.6831 16.7111C11.1176 16.8186 11.3103 16.5353 11.3864 16.3465L12.39 12.3227C12.4276 12.3317 12.4645 12.341 12.5 12.3499C12.5178 12.3543 12.5352 12.3587 12.5522 12.3629C12.491 12.3384 12.4355 12.3227 12.3927 12.3118L13.1087 9.4394C13.1275 9.1133 13.0151 8.70196 12.3935 8.54678C12.4176 8.53061 11.2789 8.26964 11.2789 8.26964L11.6872 6.6304L13.8037 7.1589L13.8019 7.16677C14.1202 7.24589 14.448 7.32107 14.782 7.39713L15.411 4.87664L16.9448 5.25913L16.3285 7.73023C16.7403 7.82421 17.1547 7.91906 17.5581 8.0196L18.1701 5.56468L19.7048 5.94717L19.0762 8.46854ZM14.2218 17.6101C15.4741 17.9409 18.211 18.6638 18.6461 16.9152C19.092 15.1273 16.4376 14.5317 15.1424 14.2411C14.9977 14.2086 14.8699 14.1799 14.7654 14.1538L13.9226 17.5324C14.0085 17.5537 14.1091 17.5803 14.2218 17.6101ZM15.4026 12.6732C16.4467 12.9518 18.7241 13.5596 19.1208 11.9704C19.5259 10.3448 17.3125 9.85482 16.2315 9.61551C16.1099 9.58859 16.0026 9.56484 15.915 9.54301L15.1509 12.6073C15.2231 12.6253 15.3078 12.6479 15.4026 12.6732Z" fill="#485B83"/>
<path d="M42.9906 8.46568C44.125 8.46568 45.105 8.66894 45.9285 9.06804C46.756 9.47107 47.4388 10.014 47.9865 10.6968C48.5268 11.3831 48.9289 12.1852 49.1886 13.1045C49.4465 14.0264 49.5758 15.0174 49.5758 16.0783C49.5758 17.7079 49.2773 19.2475 48.6745 20.6988C48.0717 22.1522 47.2539 23.4129 46.2135 24.4882C45.174 25.5623 43.9466 26.409 42.5312 27.0345C41.118 27.6605 39.5815 27.9735 37.9318 27.9735C37.7185 27.9735 37.3435 27.9674 36.8137 27.9564C36.2839 27.9455 35.675 27.8909 34.9931 27.7986C34.3068 27.7029 33.5812 27.5613 32.8149 27.3715C32.0491 27.1853 31.3217 26.9244 30.6367 26.593L36.7617 0.856568L42.2475 0.00634766L40.0545 9.1393C40.5239 8.92773 40.9969 8.7638 41.469 8.64446C41.9415 8.52688 42.4486 8.46568 42.9906 8.46568ZM38.389 23.6214C39.2152 23.6214 39.9937 23.4181 40.725 23.019C41.4585 22.6195 42.0915 22.0801 42.6217 21.4082C43.1519 20.7333 43.5716 19.9731 43.8775 19.1238C44.1835 18.2744 44.3383 17.3884 44.3383 16.4665C44.3383 15.3339 44.149 14.4504 43.7718 13.8118C43.3945 13.1758 42.6964 12.8558 41.6828 12.8558C41.3505 12.8558 40.9226 12.9192 40.3919 13.0324C39.8595 13.1526 39.3831 13.4022 38.956 13.7777L36.6209 23.4767C36.7617 23.5016 36.8862 23.5252 36.9924 23.5475C37.0965 23.5716 37.2114 23.5886 37.326 23.6004C37.4471 23.614 37.5856 23.621 37.753 23.621C37.9205 23.621 38.1298 23.6214 38.389 23.6214Z" fill="#485B83"/>
<path d="M55.2637 27.4804H50.0239L54.4489 8.85999H59.7245L55.2637 27.4804ZM57.8134 6.59128C57.0821 6.59128 56.419 6.37359 55.8306 5.93734C55.2375 5.5037 54.9437 4.83621 54.9437 3.93659C54.9437 3.44176 55.0443 2.97752 55.2436 2.53952C55.446 2.10239 55.7104 1.72603 56.0418 1.40605C56.3727 1.08869 56.756 0.835152 57.1914 0.644127C57.6294 0.456161 58.0954 0.362183 58.5919 0.362183C59.3228 0.362183 59.9824 0.579874 60.573 1.01613C61.1613 1.45457 61.4573 2.12207 61.4573 3.01687C61.4573 3.51345 61.3572 3.97943 61.1561 4.41656C60.9563 4.85369 60.6919 5.23005 60.3605 5.55003C60.0322 5.86782 59.6454 6.12049 59.2109 6.30977C58.7725 6.50079 58.3082 6.59128 57.8134 6.59128Z" fill="#485B83"/>
<path d="M64.3174 4.22022L69.8054 3.37L68.4578 8.8586H74.3353L73.274 13.1766H67.4319L65.8757 19.6898C65.7323 20.2327 65.651 20.7398 65.6283 21.211C65.6025 21.6844 65.6624 22.091 65.804 22.4332C65.9448 22.7764 66.1979 23.0408 66.565 23.2279C66.9305 23.4181 67.4537 23.5138 68.14 23.5138C68.7052 23.5138 69.256 23.46 69.7884 23.3534C70.3177 23.2485 70.8541 23.1025 71.397 22.9115L71.7878 26.9488C71.0796 27.2084 70.3129 27.4318 69.4868 27.6198C68.6593 27.8104 67.6797 27.9022 66.5476 27.9022C64.9197 27.9022 63.6577 27.6604 62.7586 27.1792C61.8607 26.6944 61.226 26.0321 60.8462 25.1937C60.4716 24.3584 60.3042 23.3954 60.3509 22.3104C60.3995 21.2228 60.5634 20.0797 60.8462 18.8759L64.3174 4.22022Z" fill="#485B83"/>
<path d="M74.104 20.0444C74.104 18.4406 74.3637 16.9281 74.8825 15.5123C75.4005 14.0951 76.1467 12.8558 77.1149 11.7923C78.0796 10.734 79.255 9.89557 80.6385 9.28009C82.0155 8.66811 83.5572 8.3595 85.2563 8.3595C86.3198 8.3595 87.2696 8.46004 88.1054 8.66156C88.9447 8.86482 89.704 9.12754 90.3907 9.45714L88.5836 13.5662C88.1115 13.3747 87.6215 13.206 87.1149 13.053C86.6079 12.8969 85.9889 12.8217 85.2567 12.8217C83.5078 12.8217 82.1252 13.4245 81.0962 14.6262C80.0711 15.8287 79.5549 17.4474 79.5549 19.4779C79.5549 20.6813 79.8146 21.6544 80.3356 22.3988C80.854 23.1432 81.8118 23.5135 83.2022 23.5135C83.8885 23.5135 84.5508 23.4418 85.185 23.3019C85.8241 23.1603 86.3884 22.9819 86.8854 22.7712L87.2766 26.9834C86.614 27.2404 85.8831 27.4726 85.0814 27.6758C84.278 27.8721 83.3216 27.9739 82.2126 27.9739C80.7487 27.9739 79.5094 27.7598 78.4958 27.3379C77.4816 26.9095 76.6437 26.3408 75.9836 25.6204C75.3201 24.8983 74.8436 24.0551 74.549 23.0873C74.2544 22.1203 74.104 21.1044 74.104 20.0444Z" fill="#485B83"/>
<path d="M97.3812 27.9739C96.1306 27.9739 95.0443 27.7834 94.1229 27.4061C93.204 27.0289 92.443 26.4995 91.8411 25.8132C91.2383 25.1304 90.7872 24.3213 90.4782 23.3889C90.1691 22.4569 90.0205 21.4249 90.0205 20.294C90.0205 18.8755 90.2482 17.4575 90.7085 16.0434C91.1666 14.6262 91.8464 13.3528 92.7459 12.2211C93.6386 11.0876 94.7397 10.1609 96.0362 9.43833C97.3314 8.72056 98.8211 8.3595 100.494 8.3595C101.722 8.3595 102.803 8.55052 103.737 8.92776C104.667 9.30413 105.433 9.83787 106.038 10.5207C106.637 11.207 107.092 12.0126 107.398 12.9463C107.706 13.8765 107.858 14.9112 107.858 16.0429C107.858 17.457 107.633 18.8751 107.188 20.2936C106.741 21.7051 106.079 22.9815 105.205 24.1158C104.332 25.2476 103.241 26.1739 101.931 26.8934C100.622 27.6129 99.1043 27.9739 97.3812 27.9739ZM100 12.8222C99.2232 12.8222 98.5365 13.0477 97.9486 13.4931C97.3585 13.9438 96.8628 14.5104 96.4632 15.1936C96.0593 15.8799 95.7599 16.6282 95.5575 17.4417C95.3569 18.257 95.2585 19.0277 95.2585 19.7598C95.2585 20.9414 95.4491 21.8616 95.8237 22.5238C96.2036 23.1826 96.8859 23.5139 97.8778 23.5139C98.6571 23.5139 99.3404 23.2901 99.9318 22.8399C100.518 22.3927 101.015 21.8257 101.417 21.1412C101.818 20.4584 102.12 19.7078 102.323 18.893C102.521 18.0804 102.622 17.3054 102.622 16.5745C102.622 15.396 102.432 14.4736 102.054 13.8123C101.676 13.1535 100.991 12.8222 100 12.8222Z" fill="#485B83"/>
<path d="M113.567 27.4804H108.323L112.748 8.85999H118.026L113.567 27.4804ZM116.113 6.59128C115.382 6.59128 114.72 6.37359 114.132 5.93734C113.542 5.5037 113.246 4.83621 113.246 3.93659C113.246 3.44176 113.348 2.97752 113.547 2.53952C113.747 2.10239 114.013 1.72603 114.345 1.40605C114.674 1.08869 115.061 0.835152 115.495 0.644127C115.93 0.456161 116.396 0.362183 116.891 0.362183C117.624 0.362183 118.286 0.579874 118.875 1.01613C119.465 1.45457 119.762 2.12207 119.762 3.01687C119.762 3.51345 119.656 3.97943 119.458 4.41656C119.26 4.85369 118.994 5.23005 118.664 5.55003C118.332 5.86782 117.95 6.12049 117.515 6.30977C117.076 6.50079 116.611 6.59128 116.113 6.59128Z" fill="#485B83"/>
<path d="M121.804 9.70616C122.201 9.58988 122.645 9.45001 123.128 9.29789C123.613 9.14576 124.155 9.00414 124.76 8.8765C125.358 8.74492 126.034 8.63826 126.776 8.55564C127.519 8.47127 128.365 8.43018 129.305 8.43018C132.069 8.43018 133.974 9.23494 135.026 10.8396C136.076 12.4443 136.258 14.6405 135.576 17.4241L133.166 27.4781H127.892L130.228 17.6357C130.37 17.0211 130.482 16.427 130.565 15.8465C130.648 15.2713 130.643 14.7642 130.546 14.3253C130.453 13.8917 130.233 13.5367 129.893 13.2618C129.547 12.9912 129.025 12.8552 128.316 12.8552C127.633 12.8552 126.938 12.9287 126.229 13.0703L122.794 27.4777H117.518L121.804 9.70616Z" fill="#485B83"/>
</g>
<defs>
<filter id="filter0_d_1_82" x="0.756589" y="0" width="136.464" height="30.4635" filterUnits="userSpaceOnUse" color-interpolation-filters="sRGB">
<feFlood flood-opacity="0" result="BackgroundImageFix"/>
<feColorMatrix in="SourceAlpha" type="matrix" values="0 0 0 0 0 0 0 0 0 0 0 0 0 0 0 0 0 0 127 0" result="hardAlpha"/>
<feOffset dy="1.24341"/>
<feGaussianBlur stdDeviation="0.621705"/>
<feComposite in2="hardAlpha" operator="out"/>
<feColorMatrix type="matrix" values="0 0 0 0 0 0 0 0 0 0 0 0 0 0 0 0 0 0 0.25 0"/>
<feBlend mode="normal" in2="BackgroundImageFix" result="effect1_dropShadow_1_82"/>
<feBlend mode="normal" in="SourceGraphic" in2="effect1_dropShadow_1_82" result="shape"/>
</filter>
<clipPath id="clip0_1_82">
<rect width="133.978" height="27.9767" fill="white" transform="translate(2)"/>
</clipPath>
</defs>
</svg>
