<svg width="138" height="31" viewBox="0 0 138 31" fill="none" xmlns="http://www.w3.org/2000/svg">
<g clip-path="url(#clip0_1_2479)" filter="url(#filter0_d_1_2479)">
<path fill-rule="evenodd" clip-rule="evenodd" d="M12.6025 27.5824C20.0982 29.4527 27.6892 24.8883 29.5578 17.3884C31.4263 9.888 26.8655 2.2905 19.3703 0.420651C11.8768 -1.4492 4.28575 3.11561 2.41806 10.6164C0.548614 18.1159 5.10987 25.7126 12.6025 27.5824ZM19.0791 8.47558C21.0172 9.14363 22.4346 10.1451 22.1561 12.0079C21.9545 13.3716 21.1991 14.0317 20.1961 14.2632C21.5733 14.9807 22.2741 16.081 21.6065 17.9884C20.778 20.3575 18.8098 20.5574 16.1923 20.0617L15.5571 22.6092L14.0221 22.2264L14.649 19.713C14.2512 19.6142 13.8446 19.5092 13.4257 19.3954L12.7966 21.9206L11.2634 21.5378L11.8986 18.9855C11.7554 18.9488 11.6112 18.9111 11.4661 18.8733C11.2479 18.8163 11.0275 18.7588 10.8043 18.7029L8.80679 18.2046L9.56882 16.4463C9.56882 16.4463 10.6998 16.7473 10.6845 16.7249C11.1191 16.8326 11.3119 16.5491 11.388 16.3601L12.3918 12.333C12.4294 12.342 12.4662 12.3512 12.5018 12.3602C12.5195 12.3646 12.5369 12.369 12.554 12.3732C12.4928 12.3487 12.4372 12.333 12.3944 12.322L13.1105 9.44724C13.1293 9.12087 13.017 8.70919 12.3953 8.55388C12.4193 8.5377 11.2804 8.27651 11.2804 8.27651L11.6888 6.63591L13.8057 7.16485L13.8039 7.17273C14.1222 7.25191 14.4501 7.32715 14.7841 7.40328L15.4132 4.88069L16.9473 5.2635L16.3309 7.73666C16.7427 7.83072 17.1572 7.92565 17.5607 8.02627L18.1728 5.56931L19.7078 5.95212L19.0791 8.47558ZM14.2238 17.6247C15.4763 17.9558 18.2137 18.6793 18.6489 16.9293C19.0948 15.1399 16.44 14.5438 15.1446 14.2529C14.9999 14.2204 14.8721 14.1917 14.7675 14.1656L13.9246 17.547C14.0105 17.5683 14.1111 17.5949 14.2238 17.6247ZM15.4049 12.6837C16.4491 12.9626 18.7269 13.5709 19.1237 11.9803C19.5289 10.3534 17.315 9.86302 16.2338 9.6235C16.1122 9.59656 16.0049 9.57279 15.9173 9.55094L15.1531 12.6178C15.2253 12.6358 15.31 12.6584 15.4049 12.6837Z" fill="white"/>
<path d="M42.9971 8.47271C44.1316 8.47271 45.1118 8.67614 45.9355 9.07557C46.7631 9.47894 47.446 10.0223 47.9938 10.7057C48.5341 11.3925 48.9364 12.1953 49.1961 13.1154C49.454 14.0381 49.5834 15.0299 49.5834 16.0917C49.5834 17.7226 49.2848 19.2635 48.6819 20.716C48.079 22.1706 47.261 23.4324 46.2205 24.5086C45.1809 25.5835 43.9532 26.4309 42.5376 27.057C41.1242 27.6835 39.5874 27.9967 37.9374 27.9967C37.7241 27.9967 37.349 27.9906 36.8191 27.9797C36.2892 27.9687 35.6802 27.914 34.9982 27.8217C34.3118 27.7259 33.5861 27.5842 32.8197 27.3943C32.0537 27.2079 31.3262 26.9467 30.6411 26.6151L36.7671 0.857275L42.2539 0.00634766L40.0605 9.1469C40.53 8.93515 41.003 8.77108 41.4752 8.65164C41.9478 8.53396 42.455 8.47271 42.9971 8.47271ZM38.3947 23.641C39.221 23.641 39.9997 23.4376 40.7311 23.0382C41.4647 22.6383 42.0978 22.0984 42.6281 21.426C43.1584 20.7505 43.5781 19.9897 43.8842 19.1397C44.1902 18.2896 44.345 17.4028 44.345 16.4802C44.345 15.3466 44.1557 14.4624 43.7784 13.8233C43.4011 13.1867 42.7029 12.8665 41.689 12.8665C41.3567 12.8665 40.9287 12.9299 40.398 13.0432C39.8655 13.1635 39.3889 13.4133 38.9618 13.7891L36.6263 23.4962C36.7671 23.5212 36.8917 23.5448 36.9979 23.5671C37.102 23.5912 37.2169 23.6082 37.3315 23.62C37.4526 23.6336 37.5912 23.6406 37.7586 23.6406C37.9261 23.6406 38.1355 23.641 38.3947 23.641Z" fill="white"/>
<path d="M55.2729 27.5033H50.0322L54.4579 8.86742H59.7344L55.2729 27.5033ZM57.823 6.59683C57.0916 6.59683 56.4284 6.37895 55.8399 5.94234C55.2466 5.50834 54.9528 4.84029 54.9528 3.93993C54.9528 3.44469 55.0534 2.98007 55.2528 2.5417C55.4552 2.1042 55.7197 1.72753 56.0511 1.40728C56.382 1.08966 56.7655 0.835912 57.2009 0.644727C57.639 0.456605 58.105 0.362549 58.6017 0.362549C59.3327 0.362549 59.9924 0.580421 60.583 1.01704C61.1715 1.45585 61.4675 2.1239 61.4675 3.01944C61.4675 3.51644 61.3674 3.9828 61.1663 4.4203C60.9665 4.85779 60.7019 5.23446 60.3706 5.55471C60.0422 5.87277 59.6553 6.12564 59.2207 6.31508C58.7822 6.50626 58.3179 6.59683 57.823 6.59683Z" fill="white"/>
<path d="M64.3278 4.22373L69.8168 3.3728L68.4689 8.86597H74.3474L73.2859 13.1875H67.4428L65.8864 19.7062C65.743 20.2495 65.6617 20.757 65.6389 21.2286C65.6131 21.7025 65.673 22.1093 65.8147 22.4519C65.9555 22.7953 66.2086 23.06 66.5759 23.2472C66.9413 23.4376 67.4647 23.5334 68.1511 23.5334C68.7164 23.5334 69.2672 23.4796 69.7997 23.3728C70.3292 23.2678 70.8656 23.1217 71.4086 22.9305L71.7994 26.9712C71.0912 27.2311 70.3243 27.4546 69.4981 27.6427C68.6704 27.8335 67.6907 27.9254 66.5584 27.9254C64.9302 27.9254 63.6681 27.6834 62.7688 27.2018C61.8708 26.7166 61.236 26.0538 60.856 25.2147C60.4814 24.3786 60.3139 23.4148 60.3607 22.329C60.4092 21.2405 60.5732 20.0964 60.856 18.8916L64.3278 4.22373Z" fill="white"/>
<path d="M74.1157 20.0611C74.1157 18.4559 74.3754 16.9422 74.8944 15.5252C75.4124 14.1068 76.1587 12.8665 77.1271 11.8021C78.092 10.7429 79.2676 9.9038 80.6513 9.28781C82.0285 8.67532 83.5705 8.36646 85.2699 8.36646C86.3336 8.36646 87.2836 8.46708 88.1195 8.66877C88.9589 8.8722 89.7183 9.13514 90.4051 9.46501L88.5978 13.5774C88.1256 13.3858 87.6355 13.2169 87.1288 13.0638C86.6217 12.9076 86.0026 12.8324 85.2703 12.8324C83.5211 12.8324 82.1382 13.4357 81.1091 14.6384C80.0839 15.8419 79.5675 17.4619 79.5675 19.4941C79.5675 20.6985 79.8272 21.6724 80.3484 22.4174C80.8669 23.1625 81.8248 23.533 83.2155 23.533C83.9019 23.533 84.5642 23.4613 85.1986 23.3213C85.8378 23.1795 86.4022 23.001 86.8993 22.7902L87.2906 27.0059C86.6278 27.2631 85.8968 27.4954 85.095 27.6988C84.2914 27.8953 83.3348 27.9972 82.2257 27.9972C80.7615 27.9972 79.5221 27.7828 78.5082 27.3607C77.4939 26.9319 76.6558 26.3627 75.9957 25.6417C75.332 24.919 74.8555 24.0751 74.5608 23.1065C74.2661 22.1387 74.1157 21.122 74.1157 20.0611Z" fill="white"/>
<path d="M97.3971 27.9972C96.1463 27.9972 95.0598 27.8065 94.1382 27.4289C93.2192 27.0513 92.4581 26.5215 91.8561 25.8347C91.2532 25.1513 90.802 24.3415 90.4929 23.4083C90.1838 22.4756 90.0352 21.4427 90.0352 20.3109C90.0352 18.8912 90.2629 17.472 90.7233 16.0567C91.1815 14.6384 91.8613 13.3639 92.7611 12.2313C93.6538 11.0969 94.7551 10.1694 96.0518 9.44618C97.3472 8.72782 98.8372 8.36646 100.511 8.36646C101.739 8.36646 102.82 8.55763 103.754 8.93519C104.684 9.31187 105.45 9.84606 106.055 10.5294C106.654 11.2163 107.109 12.0226 107.415 12.9571C107.724 13.8881 107.876 14.9236 107.876 16.0563C107.876 17.4716 107.651 18.8908 107.205 20.3105C106.759 21.7231 106.096 23.0006 105.222 24.1359C104.349 25.2686 103.258 26.1956 101.947 26.9157C100.638 27.6358 99.1205 27.9972 97.3971 27.9972ZM100.016 12.8328C99.2394 12.8328 98.5526 13.0586 97.9645 13.5044C97.3743 13.9554 96.8785 14.5224 96.479 15.2062C96.075 15.8931 95.7755 16.6421 95.5731 17.4563C95.3724 18.2722 95.2741 19.0435 95.2741 19.7763C95.2741 20.9588 95.4647 21.8798 95.8393 22.5426C96.2193 23.2019 96.9017 23.5335 97.8937 23.5335C98.6732 23.5335 99.3566 23.3095 99.9481 22.8589C100.535 22.4113 101.031 21.8439 101.434 21.1588C101.835 20.4754 102.137 19.7242 102.34 18.9087C102.538 18.0954 102.639 17.3198 102.639 16.5883C102.639 15.4088 102.449 14.4857 102.071 13.8237C101.693 13.1644 101.007 12.8328 100.016 12.8328Z" fill="white"/>
<path d="M113.586 27.5033H108.341L112.767 8.86742H118.046L113.586 27.5033ZM116.133 6.59683C115.402 6.59683 114.739 6.37895 114.151 5.94234C113.561 5.50834 113.265 4.84029 113.265 3.93993C113.265 3.44469 113.366 2.98007 113.566 2.5417C113.766 2.1042 114.032 1.72753 114.364 1.40728C114.693 1.08966 115.08 0.835912 115.514 0.644727C115.95 0.456605 116.416 0.362549 116.911 0.362549C117.643 0.362549 118.305 0.580421 118.895 1.01704C119.485 1.45585 119.782 2.1239 119.782 3.01944C119.782 3.51644 119.676 3.9828 119.478 4.4203C119.28 4.85779 119.014 5.23446 118.684 5.55471C118.352 5.87277 117.97 6.12564 117.534 6.31508C117.095 6.50626 116.63 6.59683 116.133 6.59683Z" fill="white"/>
<path d="M121.824 9.7143C122.222 9.59793 122.666 9.45793 123.149 9.30569C123.634 9.15344 124.175 9.0117 124.781 8.88395C125.379 8.75226 126.055 8.64551 126.797 8.56282C127.54 8.47839 128.387 8.43726 129.327 8.43726C132.091 8.43726 133.996 9.24269 135.048 10.8487C136.099 12.4548 136.281 14.6527 135.599 17.4387L133.188 27.501H127.913L130.249 17.6504C130.392 17.0353 130.504 16.4408 130.586 15.8598C130.67 15.284 130.665 14.7765 130.568 14.3373C130.475 13.9033 130.255 13.5481 129.915 13.2729C129.569 13.0021 129.046 12.866 128.338 12.866C127.654 12.866 126.959 12.9395 126.25 13.0813L122.814 27.5006H117.537L121.824 9.7143Z" fill="white"/>
</g>
<defs>
<filter id="filter0_d_1_2479" x="0.756589" y="0" width="136.487" height="30.4868" filterUnits="userSpaceOnUse" color-interpolation-filters="sRGB">
<feFlood flood-opacity="0" result="BackgroundImageFix"/>
<feColorMatrix in="SourceAlpha" type="matrix" values="0 0 0 0 0 0 0 0 0 0 0 0 0 0 0 0 0 0 127 0" result="hardAlpha"/>
<feOffset dy="1.24341"/>
<feGaussianBlur stdDeviation="0.621705"/>
<feComposite in2="hardAlpha" operator="out"/>
<feColorMatrix type="matrix" values="0 0 0 0 0 0 0 0 0 0 0 0 0 0 0 0 0 0 0.25 0"/>
<feBlend mode="normal" in2="BackgroundImageFix" result="effect1_dropShadow_1_2479"/>
<feBlend mode="normal" in="SourceGraphic" in2="effect1_dropShadow_1_2479" result="shape"/>
</filter>
<clipPath id="clip0_1_2479">
<rect width="134" height="28" fill="white" transform="translate(2)"/>
</clipPath>
</defs>
</svg>
