<svg width="147" height="37" viewBox="0 0 147 37" fill="none" xmlns="http://www.w3.org/2000/svg">
<g clip-path="url(#clip0_1_2609)">
<path d="M40.7305 20.8621C40.5424 18.622 38.8254 16.5711 36.4616 16.5711C34.092 16.5711 32.4221 18.622 32.1869 20.8621H40.7305ZM41.6948 21.2877C41.689 21.5536 41.4714 21.7664 41.2068 21.7664H32.1869C32.4162 24.0065 34.092 26.0575 36.4616 26.0575C38.0786 26.0575 39.2782 25.4428 40.1778 24.1425C40.2601 24.0006 40.4071 23.9179 40.5718 23.912C40.8128 23.906 41.0128 24.0952 41.0186 24.3375V24.3612C41.0186 24.4439 40.9951 24.5267 40.9481 24.5917C40.0367 26.1757 38.2256 26.9559 36.4616 26.9559C33.4276 26.9559 31.252 24.2193 31.252 21.3113C31.252 18.3974 33.4158 15.6667 36.4616 15.6667C39.5075 15.6667 41.6831 18.3738 41.6948 21.2877Z" fill="white"/>
<path d="M52.661 15.8852C52.908 15.8912 53.102 16.0921 53.1079 16.3344C53.1138 16.5768 52.9256 16.7777 52.6845 16.7836H50.2385V26.341C50.2385 26.5892 50.0385 26.7902 49.7916 26.7902C49.5446 26.7843 49.3506 26.5833 49.3447 26.341V16.7896H47.0162C46.7751 16.7955 46.5752 16.6063 46.5693 16.364V16.3404C46.5693 16.0921 46.7693 15.8912 47.0162 15.8912H49.3447V12.4039C49.3447 12.1675 49.5211 11.9606 49.7504 11.9252C49.9974 11.8897 50.2208 12.067 50.2502 12.3094C50.2502 12.333 50.2561 12.3507 50.2502 12.3744V15.8912L52.661 15.8852Z" fill="white"/>
<path d="M67.4204 20.5073V26.2937C67.4145 26.5419 67.2146 26.737 66.9735 26.7429C66.7324 26.7488 66.5325 26.5597 66.5266 26.3173V20.5073C66.5266 18.5509 65.427 16.6122 63.2632 16.6122C60.4878 16.6122 59.2883 19.0474 59.4529 21.5475C59.4529 21.6185 59.4823 21.9022 59.4823 21.9435V26.276C59.4823 26.5124 59.3118 26.7193 59.0766 26.7547C58.8297 26.7902 58.6062 26.6129 58.5768 26.3705C58.5768 26.3469 58.571 26.3232 58.5768 26.3055V7.28538C58.5768 7.03714 58.7768 6.83618 59.0237 6.83618C59.2707 6.84209 59.4647 7.04305 59.4706 7.28538V18.0308C60.2468 16.6359 61.6344 15.6902 63.2514 15.6902C65.9092 15.6961 67.4204 18.0308 67.4204 20.5073Z" fill="white"/>
<path d="M82.6436 20.8621C82.4554 18.622 80.7385 16.5711 78.3747 16.5711C76.0051 16.5711 74.3351 18.622 74.1058 20.8621H82.6436ZM83.6197 21.2877C83.6138 21.5536 83.3962 21.7664 83.1316 21.7664H74.1117C74.341 24.0065 76.0168 26.0575 78.3806 26.0575C79.9976 26.0575 81.1971 25.4428 82.0967 24.1425C82.1849 24.0006 82.3319 23.9179 82.4907 23.912C82.7318 23.906 82.9317 24.0952 82.9376 24.3375V24.3612C82.9376 24.4439 82.9141 24.5267 82.867 24.5917C81.9556 26.1757 80.1446 26.9559 78.3806 26.9559C75.3465 26.9559 73.1709 24.2193 73.1709 21.3113C73.1709 18.3974 75.3347 15.6667 78.3806 15.6667C81.4029 15.6667 83.6079 18.3738 83.6197 21.2877Z" fill="white"/>
<path d="M94.7096 16.3108C94.7272 16.565 94.5391 16.7837 94.2862 16.8014C91.6344 17.1974 90.4348 19.3725 90.4348 21.9022V26.2405C90.4348 26.4769 90.2643 26.6838 90.0291 26.7193C89.7822 26.7547 89.5587 26.5774 89.5293 26.3351C89.5234 26.3115 89.5234 26.2878 89.5234 26.2701V16.3817C89.5234 16.1453 89.6998 15.9384 89.9292 15.903C90.1702 15.8675 90.3937 16.0448 90.429 16.2872C90.429 16.3108 90.4348 16.3285 90.429 16.3522V18.3618C91.1757 17.091 92.6634 15.8853 94.2098 15.8853C94.4509 15.8853 94.7096 16.0507 94.7096 16.3108Z" fill="white"/>
<path d="M108.568 20.8621C108.374 18.622 106.663 16.5711 104.294 16.5711C101.93 16.5711 100.254 18.622 100.025 20.8621H108.568ZM109.533 21.2877C109.527 21.5536 109.309 21.7664 109.045 21.7664H100.025C100.254 24.0065 101.93 26.0575 104.294 26.0575C105.911 26.0575 107.11 25.4428 108.01 24.1425C108.092 24.0006 108.239 23.9179 108.404 23.912C108.645 23.906 108.845 24.0952 108.851 24.3375V24.3612C108.851 24.4439 108.827 24.5267 108.78 24.5917C107.869 26.1757 106.058 26.9559 104.294 26.9559C101.26 26.9559 99.084 24.2193 99.084 21.3113C99.084 18.3974 101.248 15.6667 104.294 15.6667C107.345 15.6667 109.521 18.3738 109.533 21.2877Z" fill="white"/>
<path d="M124.116 16.4176V26.3473C124.11 26.5955 123.91 26.7906 123.669 26.7965C123.428 26.8024 123.228 26.6132 123.222 26.3709V24.4618C122.475 25.9513 121.152 27.0329 119.471 27.0329C116.789 27.0329 115.308 24.6982 115.308 22.2217V16.4116C115.308 16.1634 115.508 15.9624 115.754 15.9624C116.001 15.9684 116.195 16.1693 116.201 16.4116V22.2217C116.201 24.1781 117.301 26.1168 119.465 26.1168C122.499 26.1168 123.216 23.262 123.216 20.0998V16.3939C123.222 16.1398 123.428 15.9388 123.681 15.9447C123.734 15.9447 123.781 15.9565 123.828 15.9743C124.004 16.0511 124.116 16.2284 124.116 16.4176Z" fill="white"/>
<path d="M146.953 20.4666V26.2767C146.947 26.5249 146.748 26.7199 146.506 26.7259C146.265 26.7318 146.065 26.5426 146.06 26.3003V20.4666C146.06 18.5102 144.96 16.5952 142.796 16.5952C140.074 16.5952 139.045 19.5209 139.045 21.7905V26.2767C139.039 26.5249 138.839 26.7199 138.598 26.7259C138.357 26.7318 138.157 26.5426 138.151 26.3003V20.4666C138.151 18.5102 137.051 16.5952 134.888 16.5952C132.142 16.5952 131.013 18.7703 131.107 21.6664C131.107 21.7374 131.136 21.8556 131.107 21.8969V26.2589C131.107 26.4953 130.936 26.7022 130.701 26.7377C130.454 26.7731 130.231 26.5958 130.201 26.3535C130.195 26.3298 130.195 26.3062 130.195 26.2885V16.3824C130.195 16.146 130.372 15.9391 130.601 15.9036C130.848 15.8682 131.071 16.0455 131.101 16.2878C131.101 16.3115 131.107 16.3292 131.101 16.3528V18.0078C131.877 16.6129 133.265 15.6968 134.882 15.6968C136.716 15.6968 138.145 16.873 138.733 18.5811C139.48 16.8848 140.938 15.6968 142.802 15.6968C145.448 15.6968 146.953 18.0078 146.953 20.4666Z" fill="white"/>
<path d="M0.0473633 18.8409L11.337 -0.00195312V13.6869L0.0473633 18.8409Z" fill="white"/>
<path d="M11.337 25.5551L0.0473633 18.8408L11.337 13.6868V25.5551Z" fill="white"/>
<path d="M22.6383 18.8409L11.3369 13.6869V-0.00195312L22.6383 18.8409Z" fill="white"/>
<path d="M11.3369 25.5551V13.6868L22.6383 18.8408L11.3369 25.5551Z" fill="white"/>
<path d="M11.337 36.9978L0.0473633 21.0039L11.337 27.7006V36.9978Z" fill="white"/>
<path d="M11.3369 36.9978V27.7006L22.6383 21.0039L11.3369 36.9978Z" fill="white"/>
</g>
<defs>
<clipPath id="clip0_1_2609">
<rect width="147" height="37" fill="white"/>
</clipPath>
</defs>
</svg>
