<svg width="112" height="40" viewBox="0 0 112 40" fill="none" xmlns="http://www.w3.org/2000/svg">
<path d="M13.0767 0.66134V6.70315H9.92354V0.66134H13.0767ZM12.6902 33.8811V39.333H9.55737V33.8811H12.6902ZM15.3347 27.2494C15.3347 26.4764 15.1855 25.8051 14.8872 25.2355C14.6024 24.6659 14.1209 24.1573 13.4428 23.7097C12.7783 23.2622 11.8832 22.835 10.7576 22.4281C9.00811 21.7907 7.47562 21.0923 6.16012 20.3328C4.84462 19.5598 3.8207 18.6037 3.08836 17.4645C2.36958 16.3253 2.01019 14.8877 2.01019 13.1518C2.01019 11.4837 2.3967 10.0394 3.16973 8.81881C3.95632 7.58468 5.04805 6.63534 6.44492 5.97081C7.84179 5.29272 9.46244 4.95367 11.3069 4.95367C12.7444 4.95367 14.0328 5.17066 15.172 5.60464C16.3247 6.02506 17.308 6.64213 18.1217 7.45584C18.949 8.26955 19.5796 9.27313 20.0136 10.4666C20.4611 11.6465 20.6849 12.9959 20.6849 14.5148H15.3144C15.3144 13.674 15.2195 12.9281 15.0296 12.2771C14.8397 11.6261 14.5685 11.0769 14.2159 10.6293C13.8633 10.1682 13.4361 9.82238 12.9343 9.59183C12.446 9.36128 11.89 9.246 11.2662 9.246C10.3711 9.246 9.63196 9.41553 9.0488 9.75458C8.4792 10.0936 8.05878 10.5547 7.78754 11.1379C7.52987 11.721 7.40103 12.3924 7.40103 13.1518C7.40103 13.8842 7.53665 14.5284 7.80789 15.0844C8.09269 15.6269 8.56735 16.1219 9.23188 16.5694C9.90998 17.017 10.839 17.4713 12.0188 17.9324C13.7819 18.5834 15.3144 19.3021 16.6163 20.0887C17.9183 20.8617 18.9286 21.8111 19.6474 22.9367C20.3662 24.0624 20.7256 25.4863 20.7256 27.2087C20.7256 28.9717 20.3187 30.4636 19.505 31.6841C18.7049 32.9047 17.5792 33.8337 16.1281 34.4711C14.677 35.1085 12.9885 35.4272 11.0627 35.4272C9.82861 35.4272 8.60804 35.2645 7.40103 34.939C6.19402 34.6135 5.09551 34.0846 4.1055 33.3522C3.12904 32.6063 2.34923 31.6231 1.76607 30.4025C1.18291 29.1684 0.891333 27.6562 0.891333 25.8661H6.28218C6.28218 26.8968 6.4178 27.7512 6.68903 28.4293C6.96027 29.1074 7.32644 29.6498 7.78754 30.0567C8.24865 30.45 8.764 30.728 9.3336 30.8908C9.9032 31.0535 10.4796 31.1349 11.0627 31.1349C12.0121 31.1349 12.7987 30.9721 13.4225 30.6466C14.0599 30.3212 14.5346 29.8668 14.8465 29.2837C15.172 28.6869 15.3347 28.0089 15.3347 27.2494ZM52.4197 5.38087H58.0139V25.0524C58.0139 27.3172 57.5257 29.2226 56.5493 30.7687C55.5728 32.3012 54.2437 33.4607 52.5621 34.2473C50.8804 35.0203 48.9682 35.4069 46.8254 35.4069C44.6555 35.4069 42.7229 35.0203 41.0277 34.2473C39.3325 33.4607 38.0034 32.3012 37.0405 30.7687C36.0776 29.2226 35.5962 27.3172 35.5962 25.0524V5.38087H41.1904V25.0524C41.1904 26.4357 41.421 27.5681 41.8821 28.4496C42.3432 29.3176 42.9942 29.9618 43.835 30.3822C44.6758 30.8026 45.6726 31.0128 46.8254 31.0128C47.9917 31.0128 48.9885 30.8026 49.8158 30.3822C50.6566 29.9618 51.3008 29.3176 51.7484 28.4496C52.1959 27.5681 52.4197 26.4357 52.4197 25.0524V5.38087ZM78.8246 27.3104C78.8246 26.7408 78.7365 26.2322 78.5602 25.7847C78.3974 25.3236 78.0923 24.91 77.6447 24.5438C77.2108 24.1641 76.5937 23.7979 75.7935 23.4453C75.007 23.0791 73.9898 22.6994 72.7421 22.3061C71.3588 21.8721 70.0704 21.3839 68.877 20.8414C67.6836 20.2989 66.6325 19.6683 65.7239 18.9495C64.8288 18.2307 64.1303 17.4035 63.6286 16.4677C63.1268 15.5184 62.8759 14.4199 62.8759 13.1722C62.8759 11.9516 63.1335 10.8395 63.6489 9.83595C64.1778 8.83237 64.9237 7.97119 65.8866 7.25241C66.8495 6.52007 67.9819 5.95725 69.2839 5.56396C70.5994 5.17066 72.0505 4.97402 73.6372 4.97402C75.8342 4.97402 77.7329 5.37409 79.3332 6.17424C80.9471 6.97439 82.1948 8.05934 83.0763 9.42909C83.9578 10.7988 84.3986 12.3381 84.3986 14.0469H78.8246C78.8246 13.1247 78.628 12.311 78.2347 11.6058C77.855 10.9006 77.2718 10.3445 76.4852 9.93766C75.7122 9.5308 74.7357 9.32738 73.5558 9.32738C72.4166 9.32738 71.4673 9.4969 70.7078 9.83595C69.9619 10.175 69.3991 10.6361 69.0194 11.2193C68.6532 11.8024 68.4701 12.4534 68.4701 13.1722C68.4701 13.7146 68.599 14.2029 68.8567 14.6368C69.1143 15.0573 69.5008 15.4573 70.0162 15.8371C70.5315 16.2032 71.169 16.5491 71.9284 16.8746C72.7014 17.1865 73.5965 17.4984 74.6137 17.8103C76.2411 18.2986 77.6651 18.841 78.8857 19.4378C80.1198 20.0345 81.1437 20.7126 81.9574 21.472C82.7847 22.2315 83.4018 23.0859 83.8086 24.0352C84.229 24.9846 84.4392 26.0627 84.4392 27.2697C84.4392 28.5445 84.1883 29.6837 83.6866 30.6873C83.1848 31.6909 82.466 32.5453 81.5302 33.2505C80.5945 33.9557 79.4688 34.4914 78.1533 34.8576C76.8514 35.2238 75.3935 35.4069 73.7796 35.4069C72.3421 35.4069 70.9181 35.217 69.5076 34.8373C68.1107 34.444 66.8427 33.8608 65.7035 33.0878C64.5643 32.3012 63.6557 31.3112 62.9776 30.1177C62.2995 28.9107 61.9604 27.5003 61.9604 25.8864H67.5751C67.5751 26.8222 67.7242 27.6223 68.0226 28.2869C68.3345 28.9378 68.7685 29.4735 69.3245 29.894C69.8941 30.3008 70.5587 30.5992 71.3181 30.789C72.0776 30.9789 72.8981 31.0738 73.7796 31.0738C74.9188 31.0738 75.8546 30.9179 76.5869 30.606C77.3328 30.2805 77.8889 29.8329 78.255 29.2633C78.6348 28.6937 78.8246 28.0428 78.8246 27.3104ZM97.601 35H91.2134L91.2541 30.606H97.601C99.3234 30.606 100.768 30.2262 101.934 29.4668C103.1 28.6937 103.982 27.5884 104.579 26.1509C105.175 24.6998 105.474 22.9638 105.474 20.9431V19.4174C105.474 17.8578 105.304 16.4813 104.965 15.2878C104.626 14.0944 104.124 13.0908 103.46 12.2771C102.809 11.4634 102.002 10.8463 101.039 10.4259C100.076 10.0055 98.9708 9.79526 97.7231 9.79526H91.0913V5.38087H97.7231C99.7031 5.38087 101.507 5.71314 103.134 6.37767C104.775 7.0422 106.192 7.99831 107.386 9.246C108.593 10.4801 109.515 11.9584 110.153 13.6807C110.804 15.4031 111.129 17.3289 111.129 19.4581V20.9431C111.129 23.0588 110.804 24.9846 110.153 26.7205C109.515 28.4428 108.593 29.9211 107.386 31.1552C106.192 32.3893 104.768 33.3387 103.114 34.0032C101.459 34.6677 99.6218 35 97.601 35ZM94.3462 5.38087V35H88.7519V5.38087H94.3462Z" fill="white"/>
</svg>
