<svg width="50" height="50" viewBox="0 0 50 50" fill="none" xmlns="http://www.w3.org/2000/svg">
<rect x="0.5" y="0.5" width="49" height="49" rx="24.5" stroke="white"/>
<path d="M22.499 22.9678H24.5811C25.1143 22.9678 25.5501 22.8747 25.8887 22.6885C26.2357 22.4938 26.4938 22.223 26.6631 21.876C26.8324 21.5205 26.917 21.1016 26.917 20.6191C26.917 20.2467 26.8366 19.904 26.6758 19.5908C26.5234 19.2777 26.2865 19.028 25.9648 18.8418C25.6432 18.6471 25.2327 18.5498 24.7334 18.5498C24.3949 18.5498 24.0648 18.6217 23.7432 18.7656C23.4215 18.901 23.1549 19.0957 22.9434 19.3496C22.7402 19.6035 22.6387 19.9124 22.6387 20.2764H18.3477C18.3477 19.2269 18.6354 18.3298 19.2109 17.585C19.7949 16.8317 20.5609 16.2562 21.5088 15.8584C22.4652 15.4521 23.4935 15.249 24.5938 15.249C25.9056 15.249 27.0566 15.4521 28.0469 15.8584C29.0371 16.2562 29.8073 16.8486 30.3574 17.6357C30.916 18.4144 31.1953 19.3792 31.1953 20.5303C31.1953 21.165 31.0472 21.7617 30.751 22.3203C30.4548 22.8789 30.04 23.3698 29.5068 23.793C28.9736 24.2161 28.3473 24.5505 27.6279 24.7959C26.917 25.0329 26.1383 25.1514 25.292 25.1514H22.499V22.9678ZM22.499 26.1543V24.0215H25.292C26.2145 24.0215 27.0566 24.1273 27.8184 24.3389C28.5801 24.542 29.236 24.8467 29.7861 25.2529C30.3363 25.6592 30.7594 26.1628 31.0557 26.7637C31.3519 27.3561 31.5 28.0374 31.5 28.8076C31.5 29.6709 31.3265 30.4411 30.9795 31.1182C30.6325 31.7952 30.1458 32.3665 29.5195 32.832C28.8932 33.2975 28.1611 33.653 27.3232 33.8984C26.4854 34.1354 25.5755 34.2539 24.5938 34.2539C23.8236 34.2539 23.0534 34.1523 22.2832 33.9492C21.513 33.7376 20.8105 33.416 20.1758 32.9844C19.541 32.5443 19.029 31.9857 18.6396 31.3086C18.2588 30.623 18.0684 29.8063 18.0684 28.8584H22.3594C22.3594 29.2477 22.4652 29.6032 22.6768 29.9248C22.8968 30.238 23.1888 30.4876 23.5527 30.6738C23.9167 30.86 24.3102 30.9531 24.7334 30.9531C25.2581 30.9531 25.7025 30.8558 26.0664 30.6611C26.4388 30.458 26.7223 30.1872 26.917 29.8486C27.1117 29.5101 27.209 29.1335 27.209 28.7188C27.209 28.0924 27.1032 27.5931 26.8916 27.2207C26.6885 26.8483 26.388 26.5775 25.9902 26.4082C25.6009 26.2389 25.1312 26.1543 24.5811 26.1543H22.499Z" fill="#FAFAFB"/>
</svg>
