<svg width="16" height="16" viewBox="0 0 16 16" fill="none" xmlns="http://www.w3.org/2000/svg">
<g id="uiw:android" clip-path="url(#clip0_1_297)">
<path id="Vector" fill-rule="evenodd" clip-rule="evenodd" d="M10.188 1.46239L10.88 0.203191C10.8929 0.171865 10.8937 0.136894 10.8824 0.104972C10.8711 0.0730491 10.8484 0.0464171 10.8187 0.0301727C10.789 0.0139284 10.7544 0.00921276 10.7214 0.0169284C10.6884 0.024644 10.6594 0.0442489 10.64 0.0719909L9.94081 1.34399C9.32872 1.0747 8.66712 0.936277 7.99841 0.937591C7.30321 0.937591 6.64641 1.08239 6.05921 1.34239L5.35841 0.0719909C5.34994 0.0560914 5.3384 0.0420334 5.32445 0.0306332C5.3105 0.019233 5.29442 0.0107178 5.27715 0.00558218C5.25989 0.000446531 5.24177 -0.00120723 5.22386 0.000716938C5.20595 0.00264111 5.1886 0.00810485 5.17281 0.0167909C5.15691 0.0252617 5.14285 0.0368071 5.13145 0.0507564C5.12005 0.0647057 5.11154 0.0807809 5.1064 0.0980486C5.10127 0.115316 5.09961 0.133432 5.10154 0.151344C5.10346 0.169257 5.10893 0.186608 5.11761 0.202391L5.81041 1.45999C4.45041 2.15919 3.53041 3.48959 3.53121 5.01759L12.464 5.01679C12.464 3.48879 11.5472 2.16159 10.188 1.46239ZM5.96561 3.40559C5.91655 3.40554 5.86798 3.39582 5.82267 3.377C5.77737 3.35818 5.73621 3.33061 5.70155 3.29588C5.6669 3.26115 5.63942 3.21994 5.6207 3.17459C5.60197 3.12924 5.59236 3.08065 5.59241 3.03159C5.59246 2.98253 5.60218 2.93396 5.621 2.88865C5.63983 2.84334 5.66739 2.80219 5.70212 2.76753C5.73685 2.73288 5.77806 2.7054 5.82341 2.68668C5.86876 2.66795 5.91735 2.65834 5.96641 2.65839C6.0656 2.65839 6.16073 2.69779 6.23087 2.76793C6.30101 2.83807 6.34041 2.9332 6.34041 3.03239C6.34041 3.13158 6.30101 3.22671 6.23087 3.29685C6.16073 3.36699 6.0656 3.40639 5.96641 3.40639M12.4336 5.35999L12.4352 11.7696C12.4352 12.1544 12.2256 12.4872 11.9168 12.6712C11.7541 12.7704 11.5673 12.8229 11.3768 12.8232L10.6536 12.824V15.0112C10.6535 15.1582 10.6206 15.3033 10.5574 15.436C10.4942 15.5687 10.4022 15.6856 10.2881 15.7783C10.174 15.871 10.0407 15.9372 9.89791 15.9719C9.75509 16.0066 9.60632 16.0091 9.46241 15.9792C9.23947 15.9333 9.0391 15.8121 8.89489 15.636C8.75069 15.4599 8.67143 15.2396 8.67041 15.012V12.824H7.33041V15.012C7.32999 15.2743 7.22543 15.5257 7.03972 15.711C6.854 15.8963 6.60233 16.0002 6.34001 16C6.07789 15.9996 5.82658 15.8954 5.64101 15.7103C5.45543 15.5252 5.35067 15.2741 5.34961 15.012V12.824H4.62881C4.21201 12.824 3.85521 12.584 3.68321 12.2352C3.61001 12.0911 3.57139 11.932 3.57041 11.7704L3.56881 5.36239L12.4336 5.35999ZM2.19201 5.17599C2.73921 5.17599 3.18401 5.61839 3.18401 6.16319V10.2992C3.18401 10.3669 3.17735 10.4333 3.16401 10.4984C3.13113 10.657 3.05986 10.8051 2.95646 10.9297C2.85305 11.0543 2.72066 11.1517 2.57088 11.2133C2.42109 11.2749 2.2585 11.2988 2.09733 11.2829C1.93615 11.2671 1.78133 11.212 1.64641 11.1224C1.50951 11.0329 1.39707 10.9107 1.31927 10.7668C1.24146 10.6229 1.20075 10.462 1.20081 10.2984L1.20001 6.16319C1.20001 5.61919 1.64401 5.17599 2.19201 5.17599ZM13.808 5.17519C14.3552 5.17519 14.8 5.61679 14.8 6.16239V10.2976C14.8 10.844 14.356 11.2856 13.8088 11.2856C13.2608 11.2856 12.8168 10.844 12.8168 10.2976V6.16159C12.8168 5.61599 13.26 5.17359 13.8072 5.17439M10.032 2.65999C10.0825 2.65765 10.1329 2.66558 10.1802 2.68328C10.2275 2.70098 10.2708 2.72809 10.3073 2.76297C10.3438 2.79786 10.3729 2.83979 10.3928 2.88624C10.4127 2.93268 10.4229 2.98267 10.4229 3.03319C10.4229 3.08371 10.4127 3.1337 10.3928 3.18014C10.3729 3.22659 10.3438 3.26852 10.3073 3.30341C10.2708 3.33829 10.2275 3.3654 10.1802 3.38311C10.1329 3.40081 10.0825 3.40873 10.032 3.40639C9.98155 3.40873 9.93114 3.40081 9.88382 3.38311C9.83651 3.3654 9.79327 3.33829 9.75674 3.30341C9.7202 3.26852 9.69112 3.22659 9.67124 3.18014C9.65137 3.1337 9.64113 3.08371 9.64113 3.03319C9.64113 2.98267 9.65137 2.93268 9.67124 2.88624C9.69112 2.83979 9.7202 2.79786 9.75674 2.76297C9.79327 2.72809 9.83651 2.70098 9.88382 2.68328C9.93114 2.66558 9.98155 2.65765 10.032 2.65999Z" fill="white"/>
</g>
<defs>
<clipPath id="clip0_1_297">
<rect width="16" height="16" fill="white"/>
</clipPath>
</defs>
</svg>
