<svg width="196" height="65" viewBox="0 0 196 65" fill="none" xmlns="http://www.w3.org/2000/svg">
<g clip-path="url(#clip0_1_210)">
<path d="M180.392 0.00021125H15.617C15.0164 0.00021125 14.423 0.00021125 13.824 0.00346125C13.3225 0.00671125 12.825 0.0161525 12.3188 0.0240987C11.2189 0.0369392 10.1217 0.132935 9.03656 0.311252C7.95295 0.493452 6.90329 0.836949 5.92307 1.33013C4.94406 1.82748 4.0495 2.47373 3.27186 3.24545C2.49013 4.015 1.8385 4.90449 1.34203 5.87972C0.844184 6.85301 0.498976 7.89599 0.318329 8.97262C0.135965 10.0479 0.0378333 11.1356 0.0248145 12.2259C0.00961458 12.7241 0.00800942 13.224 0 13.7223V51.2829C0.00800942 51.7875 0.00961458 52.2763 0.0248145 52.781C0.0378373 53.8713 0.135969 54.9589 0.318329 56.0341C0.498478 57.1114 0.843705 58.1549 1.34203 59.1286C1.83828 60.1007 2.49 60.9866 3.27186 61.7518C4.04655 62.527 4.94169 63.1737 5.92307 63.6672C6.90328 64.1617 7.95283 64.5073 9.03656 64.6923C10.1219 64.8692 11.219 64.9652 12.3188 64.9796C12.825 64.9906 13.3225 64.997 13.824 64.997C14.423 65.0002 15.0164 65.0002 15.617 65.0002H180.392C180.98 65.0002 181.579 65.0002 182.167 64.997C182.666 64.997 183.178 64.9906 183.677 64.9796C184.775 64.966 185.87 64.8699 186.953 64.6923C188.04 64.506 189.094 64.1605 190.079 63.6672C191.059 63.1734 191.953 62.5267 192.727 61.7518C193.507 60.9836 194.16 60.0983 194.663 59.1286C195.157 58.1542 195.499 57.1107 195.677 56.0341C195.859 54.9587 195.961 53.8714 195.981 52.781C195.987 52.2763 195.987 51.7875 195.987 51.2829C196 50.6926 196 50.1055 196 49.5055V15.4964C196 14.9013 196 14.311 195.987 13.7223C195.987 13.224 195.987 12.7241 195.981 12.2258C195.961 11.1354 195.859 10.048 195.677 8.97255C195.499 7.89654 195.157 6.85365 194.663 5.87966C193.652 3.9249 192.049 2.33375 190.079 1.32998C189.094 0.838008 188.04 0.494602 186.953 0.311106C185.87 0.132003 184.775 0.0359739 183.677 0.0238712C183.178 0.0159412 182.666 0.00641875 182.167 0.00325C181.579 0 180.98 0.00021125 180.392 0.00021125Z" fill="#A6A6A6"/>
<path d="M13.832 63.5781C13.3329 63.5781 12.8459 63.5718 12.3508 63.5607C11.3251 63.5475 10.3018 63.4589 9.2893 63.2957C8.34519 63.1344 7.4306 62.8343 6.5757 62.4054C5.72864 61.98 4.95605 61.4222 4.28753 60.7534C3.60933 60.0925 3.0447 59.3259 2.61601 58.4841C2.1826 57.6368 1.88266 56.7286 1.72662 55.7911C1.55812 54.7838 1.46696 53.7653 1.45391 52.7443C1.44353 52.4015 1.42993 51.2605 1.42993 51.2605V13.7221C1.42993 13.7221 1.44441 12.5985 1.45399 12.2684C1.46648 11.249 1.55712 10.2321 1.72512 9.22631C1.88144 8.28628 2.18162 7.37547 2.61526 6.5254C3.04237 5.68416 3.60387 4.91702 4.27798 4.25373C4.95133 3.58413 5.72639 3.02348 6.5749 2.59222C7.42783 2.16465 8.3407 1.86669 9.2829 1.70831C10.2987 1.54348 11.3256 1.45437 12.3548 1.44172L13.8328 1.42188H182.159L183.655 1.44251C184.675 1.45454 185.692 1.54286 186.699 1.70672C187.651 1.86708 188.573 2.16713 189.436 2.59698C191.135 3.4661 192.519 4.84114 193.391 6.52936C193.818 7.37356 194.113 8.27695 194.268 9.20886C194.438 10.2229 194.533 11.2478 194.552 12.2756C194.557 12.7358 194.557 13.2301 194.557 13.7221C194.57 14.3314 194.57 14.9114 194.57 15.4962V49.5053C194.57 50.0957 194.57 50.6717 194.557 51.2525C194.557 51.781 194.557 52.265 194.551 52.7633C194.532 53.7727 194.438 54.7793 194.271 55.7752C194.118 56.7194 193.82 57.6347 193.386 58.4889C192.955 59.3216 192.393 60.0816 191.723 60.7407C191.054 61.4131 190.28 61.9742 189.431 62.4023C188.571 62.8345 187.65 63.1357 186.699 63.2957C185.686 63.4598 184.663 63.5484 183.637 63.5607C183.157 63.5718 182.655 63.5781 182.167 63.5781L180.392 63.5814L13.832 63.5781Z" fill="black"/>
<path d="M40.5694 32.9885C40.587 31.6322 40.9502 30.3023 41.625 29.1227C42.2999 27.943 43.2646 26.9518 44.4293 26.2414C43.6894 25.193 42.7133 24.3303 41.5785 23.7216C40.4437 23.113 39.1815 22.7752 37.8921 22.7352C35.1416 22.4488 32.4752 24.368 31.0736 24.368C29.6449 24.368 27.4869 22.7636 25.1632 22.8111C23.6601 22.8592 22.1952 23.2929 20.9113 24.0697C19.6274 24.8466 18.5682 25.9401 17.8369 27.2439C14.6692 32.685 17.032 40.6817 20.0664 45.08C21.5846 47.2337 23.3589 49.6394 25.6806 49.5541C27.9525 49.4606 28.801 48.1168 31.5434 48.1168C34.2603 48.1168 35.0564 49.5541 37.4251 49.4999C39.863 49.4606 41.3989 47.3366 42.8639 45.1625C43.9547 43.6279 44.7941 41.9319 45.3509 40.1372C43.9346 39.5429 42.7259 38.5481 41.8757 37.2768C41.0254 36.0056 40.5711 34.5142 40.5694 32.9885Z" fill="white"/>
<path d="M36.0952 19.8427C37.4245 18.2596 38.0793 16.2248 37.9207 14.1704C35.89 14.382 34.0142 15.3449 32.667 16.8673C32.0083 17.611 31.5038 18.4762 31.1824 19.4134C30.861 20.3507 30.7289 21.3416 30.7937 22.3295C31.8094 22.3399 32.8143 22.1215 33.7326 21.6907C34.6509 21.26 35.4588 20.6281 36.0952 19.8427Z" fill="white"/>
<path d="M69.2877 44.102H61.5348L59.6729 49.5562H56.3891L63.7325 29.377H67.1443L74.4878 49.5562H71.1479L69.2877 44.102ZM62.3377 41.5851H68.4832L65.4537 32.7333H65.3689L62.3377 41.5851Z" fill="white"/>
<path d="M90.3471 42.2008C90.3471 46.7728 87.8806 49.7101 84.1585 49.7101C83.2156 49.7591 82.2779 49.5436 81.4528 49.0883C80.6276 48.6331 79.9483 47.9566 79.4927 47.1361H79.4223V54.4232H76.3784V34.8439H79.3247V37.2909H79.3807C79.8573 36.4744 80.548 35.8014 81.3795 35.3434C82.211 34.8854 83.152 34.6596 84.1025 34.69C87.8662 34.69 90.3471 37.6416 90.3471 42.2008ZM87.2184 42.2008C87.2184 39.2222 85.6669 37.264 83.2996 37.264C80.9738 37.264 79.4095 39.2635 79.4095 42.2008C79.4095 45.1652 80.9738 47.1504 83.2996 47.1504C85.6669 47.1504 87.2184 45.2065 87.2184 42.2008Z" fill="white"/>
<path d="M106.669 42.2008C106.669 46.7727 104.202 49.7101 100.48 49.7101C99.5372 49.759 98.5995 49.5436 97.7744 49.0883C96.9492 48.6331 96.2699 47.9565 95.8143 47.1361H95.7439V54.4232H92.7V34.8439H95.6463V37.2909H95.7023C96.1788 36.4744 96.8696 35.8013 97.701 35.3434C98.5325 34.8854 99.4736 34.6596 100.424 34.69C104.188 34.69 106.669 37.6416 106.669 42.2008ZM103.54 42.2008C103.54 39.2222 101.988 37.2639 99.6212 37.2639C97.2954 37.2639 95.7311 39.2635 95.7311 42.2008C95.7311 45.1652 97.2954 47.1504 99.6212 47.1504C101.988 47.1504 103.54 45.2064 103.54 42.2008Z" fill="white"/>
<path d="M117.456 43.9338C117.682 45.9349 119.641 47.2488 122.319 47.2488C124.884 47.2488 126.73 45.9348 126.73 44.1305C126.73 42.5642 125.617 41.6264 122.981 40.9837L120.345 40.3536C116.61 39.4586 114.876 37.7257 114.876 34.9137C114.876 31.432 117.934 29.0405 122.277 29.0405C126.575 29.0405 129.521 31.432 129.62 34.9137H126.548C126.364 32.8999 124.686 31.6843 122.234 31.6843C119.782 31.6843 118.104 32.9142 118.104 34.7042C118.104 36.1309 119.175 36.9703 121.797 37.613L124.038 38.1589C128.211 39.138 129.945 40.8011 129.945 43.7528C129.945 47.528 126.914 49.8925 122.093 49.8925C117.582 49.8925 114.537 47.5836 114.34 43.9337L117.456 43.9338Z" fill="white"/>
<path d="M136.514 31.3623V34.844H139.334V37.2355H136.514V45.3462C136.514 46.6062 137.079 47.1934 138.319 47.1934C138.653 47.1876 138.988 47.1642 139.32 47.1235V49.5007C138.763 49.604 138.196 49.6508 137.629 49.6403C134.627 49.6403 133.456 48.5216 133.456 45.6683V37.2355H131.3V34.844H133.456V31.3623H136.514Z" fill="white"/>
<path d="M140.968 42.2009C140.968 37.5719 143.716 34.6631 148.001 34.6631C152.3 34.6631 155.035 37.5718 155.035 42.2009C155.035 46.8427 152.315 49.7388 148.001 49.7388C143.688 49.7388 140.968 46.8426 140.968 42.2009ZM151.934 42.2009C151.934 39.0255 150.467 37.1514 148.001 37.1514C145.534 37.1514 144.069 39.0398 144.069 42.2009C144.069 45.389 145.534 47.2489 148.001 47.2489C150.467 47.2489 151.934 45.389 151.934 42.2009Z" fill="white"/>
<path d="M157.545 34.844H160.448V37.3481H160.519C160.715 36.566 161.177 35.8749 161.826 35.3908C162.476 34.9068 163.274 34.6593 164.085 34.6901C164.436 34.6888 164.786 34.7266 165.128 34.8027V37.6274C164.686 37.4932 164.224 37.4315 163.761 37.445C163.318 37.4272 162.878 37.5045 162.468 37.6717C162.059 37.8389 161.691 38.092 161.39 38.4135C161.089 38.7351 160.861 39.1176 160.723 39.5346C160.584 39.9517 160.539 40.3936 160.589 40.8298V49.5563H157.545L157.545 34.844Z" fill="white"/>
<path d="M179.163 45.2351C178.753 47.9059 176.132 49.7388 172.777 49.7388C168.463 49.7388 165.786 46.8712 165.786 42.2707C165.786 37.656 168.478 34.6631 172.649 34.6631C176.752 34.6631 179.332 37.4592 179.332 41.92V42.9547H168.858V43.1372C168.81 43.6787 168.878 44.2241 169.059 44.7373C169.239 45.2506 169.528 45.7199 169.905 46.114C170.282 46.5081 170.74 46.8181 171.247 47.0234C171.755 47.2286 172.3 47.3244 172.848 47.3044C173.567 47.3713 174.289 47.206 174.906 46.8332C175.523 46.4603 176.002 45.8999 176.272 45.2351L179.163 45.2351ZM168.873 40.8441H176.287C176.314 40.3573 176.24 39.8701 176.068 39.4131C175.897 38.9561 175.632 38.5393 175.29 38.1887C174.949 37.838 174.538 37.5612 174.083 37.3756C173.629 37.19 173.141 37.0996 172.649 37.1101C172.154 37.1072 171.662 37.2017 171.204 37.3881C170.745 37.5746 170.328 37.8493 169.977 38.1965C169.626 38.5436 169.347 38.9563 169.158 39.4107C168.968 39.8652 168.872 40.3523 168.873 40.8441Z" fill="white"/>
<path d="M61.9562 14.188C62.5944 14.1426 63.2348 14.2382 63.8311 14.468C64.4275 14.6979 64.9651 15.0562 65.405 15.517C65.8449 15.9779 66.1763 16.5299 66.3751 17.1333C66.5739 17.7366 66.6354 18.3762 66.5549 19.0059C66.5549 22.1035 64.8674 23.8841 61.9562 23.8841H58.4261V14.188H61.9562ZM59.944 22.5129H61.7867C62.2427 22.5399 62.699 22.4657 63.1225 22.2957C63.546 22.1257 63.9259 21.8642 64.2346 21.5302C64.5434 21.1961 64.7731 20.798 64.9072 20.3647C65.0413 19.9315 65.0763 19.474 65.0097 19.0256C65.0715 18.579 65.0329 18.1244 64.8968 17.6943C64.7606 17.2642 64.5303 16.8694 64.2223 16.538C63.9142 16.2066 63.5361 15.9469 63.1151 15.7775C62.694 15.6081 62.2404 15.5332 61.7867 15.5582H59.944V22.5129Z" fill="white"/>
<path d="M68.2696 20.2222C68.2232 19.7413 68.2786 19.2561 68.4323 18.7977C68.5861 18.3394 68.8346 17.918 69.1621 17.5605C69.4896 17.203 69.8888 16.9174 70.334 16.7219C70.7793 16.5265 71.2608 16.4255 71.7477 16.4255C72.2346 16.4255 72.7162 16.5265 73.1614 16.7219C73.6067 16.9174 74.0059 17.203 74.3334 17.5605C74.6609 17.918 74.9094 18.3394 75.0631 18.7977C75.2168 19.2561 75.2723 19.7413 75.2259 20.2222C75.2732 20.7035 75.2184 21.1894 75.0651 21.6485C74.9118 22.1076 74.6634 22.5298 74.3358 22.8879C74.0082 23.2461 73.6087 23.5323 73.163 23.7282C72.7173 23.9241 72.2352 24.0253 71.7477 24.0253C71.2603 24.0253 70.7782 23.9241 70.3325 23.7282C69.8867 23.5323 69.4873 23.2461 69.1597 22.8879C68.8321 22.5298 68.5837 22.1076 68.4304 21.6485C68.2771 21.1894 68.2223 20.7035 68.2696 20.2222ZM73.7287 20.2222C73.7287 18.636 73.0106 17.7085 71.7501 17.7085C70.4849 17.7085 69.7732 18.636 69.7732 20.2222C69.7732 21.821 70.485 22.7414 71.7501 22.7414C73.0106 22.7414 73.7287 21.8146 73.7287 20.2222Z" fill="white"/>
<path d="M84.4728 23.8839H82.9629L81.4385 18.4947H81.3234L79.8054 23.8839H78.3099L76.2769 16.5667H77.7532L79.0744 22.1501H79.1832L80.6996 16.5667H82.096L83.6123 22.1501H83.7275L85.0423 16.5667H86.4978L84.4728 23.8839Z" fill="white"/>
<path d="M88.2077 16.5667H89.6089V17.7291H89.7177C89.9022 17.3116 90.2134 16.9616 90.6079 16.7279C91.0025 16.4942 91.4606 16.3885 91.9186 16.4254C92.2775 16.3986 92.6378 16.4523 92.9729 16.5825C93.3081 16.7126 93.6094 16.9159 93.8545 17.1773C94.0997 17.4387 94.2824 17.7514 94.3892 18.0924C94.496 18.4333 94.5241 18.7938 94.4715 19.147V23.8838H93.0159V19.5096C93.0159 18.3337 92.5009 17.7489 91.4244 17.7489C91.1807 17.7377 90.9375 17.7788 90.7114 17.8695C90.4852 17.9602 90.2816 18.0984 90.1143 18.2745C89.947 18.4507 89.8201 18.6606 89.7423 18.8899C89.6644 19.1193 89.6375 19.3626 89.6633 19.6032V23.8839H88.2077L88.2077 16.5667Z" fill="white"/>
<path d="M96.7908 13.7102H98.2464V23.8839H96.7908V13.7102Z" fill="white"/>
<path d="M100.27 20.222C100.223 19.7411 100.279 19.2559 100.433 18.7976C100.586 18.3392 100.835 17.9177 101.163 17.5603C101.49 17.2028 101.889 16.9172 102.335 16.7217C102.78 16.5263 103.261 16.4253 103.748 16.4253C104.235 16.4253 104.717 16.5263 105.162 16.7217C105.607 16.9172 106.007 17.2028 106.334 17.5603C106.662 17.9177 106.91 18.3392 107.064 18.7976C107.218 19.2559 107.273 19.7411 107.227 20.222C107.274 20.7034 107.219 21.1893 107.066 21.6484C106.913 22.1075 106.664 22.5297 106.337 22.8878C106.009 23.246 105.609 23.5322 105.164 23.7281C104.718 23.9239 104.236 24.0251 103.748 24.0251C103.261 24.0251 102.779 23.9239 102.333 23.7281C101.887 23.5322 101.488 23.246 101.16 22.8878C100.833 22.5297 100.584 22.1075 100.431 21.6484C100.277 21.1893 100.223 20.7034 100.27 20.222ZM105.729 20.222C105.729 18.6359 105.011 17.7084 103.75 17.7084C102.485 17.7084 101.773 18.6359 101.773 20.2221C101.773 21.8209 102.485 22.7413 103.75 22.7413C105.011 22.7413 105.729 21.8145 105.729 20.222Z" fill="white"/>
<path d="M108.759 21.8147C108.759 20.4975 109.748 19.7382 111.502 19.6303L113.5 19.516V18.8845C113.5 18.1116 112.985 17.6752 111.99 17.6752C111.178 17.6752 110.615 17.9712 110.453 18.4885H109.044C109.193 17.2317 110.384 16.4255 112.058 16.4255C113.907 16.4255 114.949 17.3388 114.949 18.8845V23.884H113.548V22.8557H113.433C113.199 23.2246 112.871 23.5253 112.482 23.7271C112.093 23.929 111.656 24.0247 111.218 24.0046C110.908 24.0365 110.595 24.0038 110.299 23.9084C110.003 23.813 109.73 23.6571 109.499 23.4508C109.267 23.2445 109.082 22.9923 108.954 22.7105C108.827 22.4287 108.76 22.1235 108.759 21.8147ZM113.5 21.1894V20.5777L111.699 20.6919C110.684 20.7594 110.223 21.1022 110.223 21.7472C110.223 22.4058 110.799 22.789 111.59 22.789C111.822 22.8123 112.057 22.7891 112.28 22.7207C112.502 22.6523 112.709 22.5401 112.887 22.3909C113.065 22.2417 113.211 22.0584 113.317 21.852C113.422 21.6456 113.485 21.4203 113.5 21.1894Z" fill="white"/>
<path d="M116.862 20.2221C116.862 17.91 118.061 16.4453 119.924 16.4453C120.385 16.4242 120.842 16.5337 121.243 16.7611C121.643 16.9884 121.97 17.3241 122.186 17.729H122.295V13.7102H123.75V23.8839H122.355V22.7278H122.24C122.008 23.13 121.67 23.4616 121.262 23.6866C120.853 23.9116 120.391 24.0216 119.924 24.0045C118.048 24.0046 116.862 22.5398 116.862 20.2221ZM118.366 20.2221C118.366 21.7741 119.103 22.708 120.337 22.708C121.564 22.708 122.322 21.7607 122.322 20.2285C122.322 18.7035 121.556 17.7426 120.337 17.7426C119.111 17.7426 118.366 18.6828 118.366 20.2221Z" fill="white"/>
<path d="M129.772 20.2222C129.726 19.7413 129.781 19.2561 129.935 18.7977C130.089 18.3394 130.337 17.918 130.665 17.5605C130.992 17.203 131.392 16.9174 131.837 16.7219C132.282 16.5265 132.764 16.4255 133.25 16.4255C133.737 16.4255 134.219 16.5265 134.664 16.7219C135.109 16.9174 135.509 17.203 135.836 17.5605C136.164 17.918 136.412 18.3394 136.566 18.7977C136.72 19.2561 136.775 19.7413 136.729 20.2222C136.776 20.7035 136.721 21.1894 136.568 21.6485C136.415 22.1076 136.166 22.5298 135.839 22.8879C135.511 23.2461 135.111 23.5323 134.666 23.7282C134.22 23.9241 133.738 24.0253 133.25 24.0253C132.763 24.0253 132.281 23.9241 131.835 23.7282C131.389 23.5323 130.99 23.2461 130.662 22.8879C130.335 22.5298 130.086 22.1076 129.933 21.6485C129.78 21.1894 129.725 20.7035 129.772 20.2222ZM135.231 20.2222C135.231 18.636 134.513 17.7085 133.253 17.7085C131.988 17.7085 131.276 18.636 131.276 20.2222C131.276 21.821 131.988 22.7414 133.253 22.7414C134.513 22.7414 135.231 21.8146 135.231 20.2222Z" fill="white"/>
<path d="M138.682 16.5667H140.083V17.7291H140.192C140.376 17.3116 140.687 16.9616 141.082 16.7279C141.476 16.4942 141.935 16.3885 142.393 16.4254C142.751 16.3986 143.112 16.4523 143.447 16.5825C143.782 16.7126 144.083 16.9159 144.329 17.1773C144.574 17.4387 144.756 17.7514 144.863 18.0924C144.97 18.4333 144.998 18.7938 144.945 19.147V23.8838H143.49V19.5096C143.49 18.3337 142.975 17.7489 141.898 17.7489C141.655 17.7377 141.411 17.7788 141.185 17.8695C140.959 17.9602 140.756 18.0984 140.588 18.2745C140.421 18.4507 140.294 18.6606 140.216 18.8899C140.138 19.1193 140.111 19.3626 140.137 19.6032V23.8839H138.682V16.5667Z" fill="white"/>
<path d="M153.17 14.7449V16.6H154.768V17.8163H153.17V21.5789C153.17 22.3454 153.489 22.681 154.213 22.681C154.399 22.6804 154.584 22.6693 154.768 22.6477V23.8506C154.507 23.897 154.242 23.9217 153.976 23.9244C152.358 23.9244 151.713 23.3594 151.713 21.9487V17.8163H150.542V16.5999H151.713V14.7449H153.17Z" fill="white"/>
<path d="M156.756 13.7102H158.199V17.7426H158.314C158.508 17.3212 158.828 16.9692 159.23 16.7346C159.632 16.5001 160.098 16.3943 160.563 16.4318C160.92 16.4125 161.277 16.4716 161.608 16.6049C161.94 16.7383 162.237 16.9425 162.48 17.203C162.723 17.4636 162.904 17.774 163.012 18.1123C163.12 18.4505 163.151 18.8081 163.103 19.1597V23.8839H161.646V19.5159C161.646 18.3472 161.098 17.7552 160.069 17.7552C159.819 17.7349 159.567 17.769 159.332 17.8552C159.096 17.9414 158.883 18.0776 158.706 18.2543C158.529 18.431 158.393 18.644 158.308 18.8782C158.222 19.1124 158.19 19.3623 158.212 19.6103V23.8839H156.756L156.756 13.7102Z" fill="white"/>
<path d="M171.59 21.9082C171.393 22.5769 170.964 23.1554 170.38 23.5424C169.796 23.9294 169.093 24.1003 168.395 24.0251C167.909 24.0379 167.426 23.9455 166.979 23.7545C166.533 23.5636 166.134 23.2785 165.81 22.9192C165.486 22.5598 165.244 22.1348 165.102 21.6736C164.96 21.2124 164.921 20.726 164.988 20.2483C164.923 19.7691 164.963 19.2817 165.104 18.8191C165.246 18.3565 165.486 17.9295 165.809 17.567C166.131 17.2045 166.528 16.915 166.973 16.7181C167.418 16.5211 167.901 16.4213 168.388 16.4254C170.44 16.4254 171.678 17.8164 171.678 20.1142V20.6181H166.47V20.699C166.448 20.9675 166.482 21.2378 166.57 21.4925C166.659 21.7472 166.8 21.9808 166.985 22.1781C167.17 22.3755 167.395 22.5323 167.644 22.6386C167.894 22.7449 168.163 22.7982 168.435 22.7952C168.783 22.8367 169.135 22.7745 169.448 22.6165C169.76 22.4586 170.018 22.212 170.189 21.9081L171.59 21.9082ZM166.47 19.55H170.196C170.214 19.3045 170.18 19.0578 170.097 18.8259C170.013 18.594 169.882 18.3819 169.711 18.2034C169.54 18.0249 169.333 17.8838 169.104 17.7893C168.875 17.6948 168.628 17.6488 168.38 17.6545C168.128 17.6513 167.879 17.6982 167.645 17.7924C167.412 17.8866 167.2 18.0261 167.022 18.2027C166.844 18.3794 166.704 18.5896 166.609 18.821C166.514 19.0524 166.467 19.3003 166.47 19.55Z" fill="white"/>
</g>
<defs>
<clipPath id="clip0_1_210">
<rect width="196" height="65" fill="white"/>
</clipPath>
</defs>
</svg>
