<svg width="163" height="48" viewBox="0 0 163 48" fill="none" xmlns="http://www.w3.org/2000/svg">
<path d="M149.191 0.152498H13.0876C12.5915 0.152498 12.1013 0.152498 11.6065 0.154868C11.1923 0.157238 10.7814 0.164123 10.3633 0.169918C9.45479 0.179282 8.54846 0.249287 7.65215 0.379326C6.75709 0.512196 5.89008 0.762693 5.08042 1.12235C4.27176 1.48504 3.53286 1.95633 2.89053 2.51911C2.24483 3.0803 1.70658 3.72897 1.2965 4.44016C0.885281 5.14994 0.600141 5.91053 0.450927 6.69567C0.300295 7.47982 0.219238 8.27301 0.208485 9.06812C0.19593 9.43145 0.194604 9.79599 0.187988 10.1594V37.5507C0.194604 37.9186 0.19593 38.2751 0.208485 38.6432C0.219242 39.4383 0.300298 40.2314 0.450927 41.0155C0.599729 41.8011 0.884885 42.5621 1.2965 43.2722C1.7064 43.9811 2.24472 44.6271 2.89053 45.1852C3.53042 45.7505 4.2698 46.2221 5.08042 46.582C5.89007 46.9426 6.757 47.1946 7.65215 47.3295C8.54862 47.4585 9.45485 47.5286 10.3633 47.539C10.7814 47.5471 11.1923 47.5517 11.6065 47.5517C12.1013 47.5541 12.5915 47.5541 13.0876 47.5541H149.191C149.677 47.5541 150.171 47.5541 150.657 47.5517C151.07 47.5517 151.492 47.5471 151.905 47.539C152.811 47.5291 153.716 47.4591 154.611 47.3295C155.509 47.1937 156.379 46.9417 157.192 46.582C158.002 46.2219 158.741 45.7503 159.38 45.1852C160.024 44.6249 160.564 43.9794 160.979 43.2722C161.387 42.5616 161.67 41.8007 161.816 41.0155C161.967 40.2313 162.051 39.4383 162.067 38.6432C162.073 38.2751 162.073 37.9186 162.073 37.5507C162.083 37.1202 162.083 36.692 162.083 36.2545V11.4532C162.083 11.0192 162.083 10.5887 162.073 10.1594C162.073 9.79599 162.073 9.43145 162.067 9.06807C162.051 8.27289 161.967 7.47988 161.816 6.69562C161.669 5.91094 161.387 5.15041 160.979 4.44011C160.144 3.0146 158.819 1.85424 157.192 1.12224C156.379 0.763466 155.508 0.513035 154.611 0.37922C153.716 0.248608 152.811 0.178578 151.905 0.169752C151.492 0.163969 151.07 0.157025 150.657 0.154714C150.171 0.152344 149.677 0.152498 149.191 0.152498Z" fill="#A6A6A6"/>
<path d="M11.2195 46.8217C10.805 46.8217 10.4005 46.817 9.98917 46.8088C9.13715 46.799 8.28713 46.7336 7.44606 46.6129C6.66181 46.4937 5.90208 46.2719 5.19194 45.9549C4.48831 45.6405 3.84653 45.2282 3.29121 44.7339C2.72785 44.2454 2.25883 43.6788 1.90273 43.0566C1.54271 42.4303 1.29355 41.7591 1.16394 41.0662C1.02397 40.3217 0.948236 39.5688 0.937399 38.8142C0.928773 38.5609 0.91748 37.7175 0.91748 37.7175V9.97215C0.91748 9.97215 0.929508 9.14172 0.937467 8.89774C0.947843 8.14429 1.02313 7.39263 1.16268 6.64926C1.29254 5.95447 1.54189 5.28127 1.9021 4.65297C2.25689 4.03119 2.72331 3.46419 3.28328 2.97394C3.84262 2.47903 4.48644 2.06464 5.19127 1.74588C5.89979 1.42986 6.65808 1.20963 7.44074 1.09257C8.28457 0.970743 9.13755 0.904876 9.99252 0.895524L11.2202 0.880859H151.045L152.287 0.896113C153.134 0.905 153.98 0.970279 154.816 1.09139C155.606 1.20992 156.372 1.43169 157.089 1.7494C158.501 2.39179 159.65 3.4081 160.375 4.6559C160.729 5.27986 160.975 5.94757 161.103 6.63636C161.244 7.38583 161.323 8.1434 161.339 8.90303C161.343 9.24317 161.343 9.60854 161.343 9.97215C161.354 10.4225 161.354 10.8512 161.354 11.2835V36.4202C161.354 36.8566 161.354 37.2823 161.343 37.7116C161.343 38.1022 161.343 38.46 161.338 38.8282C161.322 39.5743 161.245 40.3183 161.106 41.0544C160.979 41.7523 160.731 42.4288 160.371 43.0602C160.012 43.6756 159.546 44.2373 158.989 44.7245C158.433 45.2215 157.79 45.6362 157.085 45.9526C156.37 46.2721 155.605 46.4947 154.816 46.6129C153.975 46.7342 153.125 46.7997 152.272 46.8088C151.874 46.817 151.457 46.8217 151.051 46.8217L149.577 46.8241L11.2195 46.8217Z" fill="black"/>
<path d="M29.7735 24.2095C29.7863 23.2204 30.0512 22.2506 30.5433 21.3903C31.0355 20.53 31.739 19.8072 32.5883 19.2891C32.0487 18.5246 31.3369 17.8954 30.5093 17.4515C29.6818 17.0077 28.7613 16.7614 27.821 16.7322C25.8152 16.5233 23.8707 17.923 22.8486 17.923C21.8067 17.923 20.233 16.7529 18.5384 16.7875C17.4422 16.8227 16.374 17.1389 15.4377 17.7054C14.5013 18.2719 13.7289 19.0694 13.1956 20.0202C10.8855 23.9882 12.6086 29.8198 14.8215 33.0273C15.9287 34.5979 17.2226 36.3523 18.9157 36.2901C20.5725 36.2219 21.1913 35.2419 23.1912 35.2419C25.1725 35.2419 25.753 36.2901 27.4805 36.2505C29.2583 36.2219 30.3784 34.6729 31.4467 33.0875C32.2422 31.9684 32.8543 30.7315 33.2604 29.4227C32.2276 28.9893 31.3461 28.2639 30.7261 27.3368C30.106 26.4097 29.7747 25.3221 29.7735 24.2095Z" fill="white"/>
<path d="M26.5107 14.6229C27.4801 13.4684 27.9576 11.9845 27.842 10.4863C26.361 10.6406 24.9931 11.3429 24.0106 12.453C23.5303 12.9954 23.1624 13.6264 22.928 14.3098C22.6936 14.9933 22.5972 15.716 22.6445 16.4364C23.3852 16.444 24.118 16.2847 24.7877 15.9706C25.4574 15.6564 26.0465 15.1956 26.5107 14.6229Z" fill="white"/>
<path d="M50.7165 32.3145H45.0626L43.7048 36.292H41.3101L46.6653 21.5762H49.1534L54.5087 36.292H52.0731L50.7165 32.3145ZM45.6482 30.4791H50.1298L47.9205 24.0238H47.8587L45.6482 30.4791Z" fill="white"/>
<path d="M66.074 30.9266C66.074 34.2607 64.2753 36.4028 61.561 36.4028C60.8734 36.4385 60.1895 36.2813 59.5878 35.9494C58.986 35.6174 58.4906 35.124 58.1584 34.5257H58.107V39.8399H55.8872V25.5615H58.0359V27.346H58.0767C58.4242 26.7506 58.928 26.2597 59.5343 25.9257C60.1407 25.5917 60.8269 25.4271 61.5201 25.4492C64.2648 25.4493 66.074 27.6018 66.074 30.9266ZM63.7924 30.9266C63.7924 28.7544 62.6609 27.3263 60.9345 27.3263C59.2385 27.3263 58.0977 28.7845 58.0977 30.9266C58.0977 33.0884 59.2385 34.5361 60.9345 34.5361C62.6609 34.5361 63.7924 33.1185 63.7924 30.9266Z" fill="white"/>
<path d="M77.9768 30.9266C77.9768 34.2607 76.1782 36.4028 73.4638 36.4028C72.7762 36.4385 72.0924 36.2813 71.4906 35.9494C70.8888 35.6174 70.3935 35.124 70.0612 34.5257H70.0098V39.8399H67.79V25.5615H69.9387V27.346H69.9795C70.327 26.7506 70.8308 26.2597 71.4371 25.9257C72.0435 25.5917 72.7297 25.4271 73.4229 25.4492C76.1677 25.4492 77.9768 27.6018 77.9768 30.9266ZM75.6952 30.9266C75.6952 28.7544 74.5638 27.3263 72.8374 27.3263C71.1413 27.3263 70.0005 28.7845 70.0005 30.9266C70.0005 33.0884 71.1413 34.5361 72.8374 34.5361C74.5638 34.5361 75.6952 33.1185 75.6952 30.9266Z" fill="white"/>
<path d="M85.8436 32.1911C86.0081 33.6504 87.437 34.6086 89.3897 34.6086C91.2607 34.6086 92.6068 33.6504 92.6068 32.3346C92.6068 31.1923 91.7949 30.5084 89.8726 30.0397L87.9503 29.5803C85.2266 28.9276 83.9621 27.6638 83.9621 25.6131C83.9621 23.0741 86.1924 21.3301 89.3593 21.3301C92.4936 21.3301 94.6423 23.0741 94.7146 25.6131H92.4738C92.3397 24.1446 91.116 23.2581 89.3278 23.2581C87.5396 23.2581 86.316 24.155 86.316 25.4604C86.316 26.5008 87.0975 27.113 89.0094 27.5816L90.6436 27.9797C93.6869 28.6937 94.9514 29.9066 94.9514 32.0591C94.9514 34.8122 92.7409 36.5366 89.2252 36.5366C85.9357 36.5366 83.7148 34.8527 83.5713 32.191L85.8436 32.1911Z" fill="white"/>
<path d="M99.7421 23.0234V25.5625H101.799V27.3065H99.7421V33.2213C99.7421 34.1402 100.154 34.5684 101.058 34.5684C101.302 34.5641 101.546 34.5471 101.788 34.5174V36.251C101.382 36.3263 100.969 36.3605 100.555 36.3528C98.3657 36.3528 97.5118 35.537 97.5118 33.4562V27.3065H95.9395V25.5625H97.5118V23.0234H99.7421Z" fill="white"/>
<path d="M102.989 30.9267C102.989 27.551 104.993 25.4297 108.118 25.4297C111.254 25.4297 113.248 27.5509 113.248 30.9267C113.248 34.3117 111.264 36.4237 108.118 36.4237C104.973 36.4237 102.989 34.3117 102.989 30.9267ZM110.987 30.9267C110.987 28.611 109.917 27.2443 108.118 27.2443C106.32 27.2443 105.251 28.6214 105.251 30.9267C105.251 33.2517 106.32 34.608 108.118 34.608C109.917 34.608 110.987 33.2517 110.987 30.9267Z" fill="white"/>
<path d="M115.079 25.5614H117.196V27.3876H117.247C117.39 26.8172 117.727 26.3132 118.201 25.9602C118.675 25.6072 119.256 25.4267 119.848 25.4491C120.104 25.4482 120.359 25.4758 120.609 25.5313V27.5912C120.286 27.4933 119.949 27.4484 119.612 27.4582C119.289 27.4452 118.968 27.5016 118.669 27.6235C118.371 27.7454 118.102 27.93 117.883 28.1645C117.663 28.399 117.497 28.6779 117.396 28.9821C117.295 29.2863 117.262 29.6085 117.298 29.9266V36.2904H115.079L115.079 25.5614Z" fill="white"/>
<path d="M130.844 33.1394C130.545 35.0871 128.633 36.4237 126.187 36.4237C123.041 36.4237 121.088 34.3326 121.088 30.9776C121.088 27.6123 123.052 25.4297 126.094 25.4297C129.086 25.4297 130.967 27.4688 130.967 30.7219V31.4764H123.329V31.6095C123.294 32.0044 123.344 32.4021 123.475 32.7764C123.607 33.1507 123.817 33.4929 124.092 33.7804C124.368 34.0678 124.701 34.2938 125.071 34.4435C125.441 34.5932 125.839 34.6631 126.238 34.6485C126.763 34.6972 127.289 34.5767 127.739 34.3048C128.189 34.0329 128.539 33.6242 128.736 33.1394L130.844 33.1394ZM123.34 29.9372H128.746C128.766 29.5822 128.712 29.2269 128.587 28.8937C128.462 28.5604 128.269 28.2564 128.02 28.0007C127.771 27.745 127.471 27.5432 127.14 27.4078C126.808 27.2725 126.452 27.2066 126.094 27.2142C125.732 27.2121 125.374 27.281 125.039 27.4169C124.705 27.5529 124.401 27.7533 124.145 28.0064C123.889 28.2596 123.686 28.5606 123.548 28.892C123.409 29.2234 123.339 29.5786 123.34 29.9372Z" fill="white"/>
<path d="M45.3698 10.4983C45.8352 10.4651 46.3022 10.5349 46.7371 10.7025C47.172 10.8701 47.564 11.1314 47.8848 11.4675C48.2056 11.8036 48.4473 12.2061 48.5923 12.6461C48.7373 13.0861 48.7821 13.5525 48.7234 14.0117C48.7234 16.2707 47.4928 17.5692 45.3698 17.5692H42.7954V10.4983H45.3698ZM43.9024 16.5692H45.2462C45.5787 16.589 45.9115 16.5349 46.2203 16.4109C46.5291 16.2869 46.8062 16.0962 47.0313 15.8526C47.2565 15.609 47.424 15.3186 47.5218 15.0027C47.6196 14.6867 47.6451 14.3531 47.5966 14.0261C47.6416 13.7004 47.6135 13.3689 47.5142 13.0553C47.4149 12.7416 47.247 12.4537 47.0223 12.212C46.7977 11.9703 46.522 11.7809 46.2149 11.6574C45.9078 11.5339 45.577 11.4793 45.2462 11.4975H43.9024V16.5692Z" fill="white"/>
<path d="M49.9739 14.8996C49.9401 14.5489 49.9805 14.1951 50.0926 13.8608C50.2047 13.5265 50.386 13.2192 50.6248 12.9585C50.8636 12.6978 51.1547 12.4895 51.4795 12.347C51.8042 12.2045 52.1553 12.1309 52.5104 12.1309C52.8655 12.1309 53.2166 12.2045 53.5414 12.347C53.8661 12.4895 54.1572 12.6978 54.396 12.9585C54.6348 13.2192 54.8161 13.5265 54.9282 13.8608C55.0403 14.1951 55.0807 14.5489 55.0469 14.8996C55.0813 15.2506 55.0414 15.6049 54.9296 15.9397C54.8178 16.2745 54.6366 16.5824 54.3978 16.8436C54.1589 17.1048 53.8676 17.3135 53.5425 17.4564C53.2175 17.5992 52.8659 17.673 52.5104 17.673C52.1549 17.673 51.8033 17.5992 51.4783 17.4564C51.1532 17.3135 50.8619 17.1048 50.623 16.8436C50.3842 16.5824 50.203 16.2745 50.0912 15.9397C49.9794 15.6049 49.9395 15.2506 49.9739 14.8996ZM53.9551 14.8996C53.9551 13.7429 53.4313 13.0665 52.5121 13.0665C51.5895 13.0665 51.0704 13.7429 51.0704 14.8996C51.0704 16.0655 51.5895 16.7367 52.5121 16.7367C53.4313 16.7367 53.9551 16.0609 53.9551 14.8996Z" fill="white"/>
<path d="M61.7905 17.5705H60.6893L59.5777 13.6405H59.4937L58.3867 17.5705H57.2961L55.8135 12.2344H56.8901L57.8536 16.3062H57.933L59.0388 12.2344H60.0571L61.1629 16.3062H61.2469L62.2057 12.2344H63.2672L61.7905 17.5705Z" fill="white"/>
<path d="M64.5142 12.2333H65.536V13.081H65.6153C65.7499 12.7765 65.9768 12.5213 66.2645 12.3509C66.5523 12.1804 66.8864 12.1033 67.2204 12.1303C67.4821 12.1107 67.7449 12.1499 67.9892 12.2448C68.2336 12.3397 68.4534 12.488 68.6321 12.6786C68.8109 12.8692 68.9442 13.0973 69.0221 13.3459C69.1 13.5945 69.1205 13.8574 69.0821 14.115V17.5694H68.0206V14.3794C68.0206 13.5219 67.645 13.0954 66.8599 13.0954C66.6822 13.0872 66.5049 13.1172 66.34 13.1834C66.1751 13.2495 66.0265 13.3503 65.9045 13.4787C65.7826 13.6072 65.69 13.7603 65.6332 13.9275C65.5765 14.0948 65.5568 14.2722 65.5756 14.4477V17.5694H64.5142L64.5142 12.2333Z" fill="white"/>
<path d="M70.7734 10.1504H71.8349V17.5696H70.7734V10.1504Z" fill="white"/>
<path d="M73.3103 14.8997C73.2765 14.549 73.317 14.1951 73.4291 13.8609C73.5412 13.5266 73.7225 13.2192 73.9614 12.9585C74.2002 12.6978 74.4913 12.4896 74.8161 12.347C75.1408 12.2045 75.492 12.1309 75.8471 12.1309C76.2022 12.1309 76.5534 12.2045 76.8781 12.347C77.2028 12.4896 77.494 12.6978 77.7328 12.9585C77.9717 13.2192 78.153 13.5266 78.2651 13.8609C78.3772 14.1951 78.4177 14.549 78.3839 14.8997C78.4183 15.2507 78.3783 15.605 78.2665 15.9398C78.1546 16.2746 77.9734 16.5825 77.7345 16.8437C77.4956 17.1049 77.2043 17.3136 76.8792 17.4565C76.5542 17.5993 76.2026 17.6731 75.8471 17.6731C75.4916 17.6731 75.14 17.5993 74.8149 17.4565C74.4899 17.3136 74.1985 17.1049 73.9596 16.8437C73.7207 16.5825 73.5395 16.2746 73.4277 15.9398C73.3159 15.605 73.2759 15.2507 73.3103 14.8997ZM77.2915 14.8997C77.2915 13.743 76.7677 13.0666 75.8485 13.0666C74.9259 13.0666 74.4068 13.743 74.4068 14.8997C74.4068 16.0656 74.9259 16.7368 75.8485 16.7368C76.7677 16.7368 77.2915 16.061 77.2915 14.8997Z" fill="white"/>
<path d="M79.5015 16.0609C79.5015 15.1004 80.2223 14.5467 81.502 14.468L82.9589 14.3846V13.924C82.9589 13.3604 82.5833 13.0422 81.8577 13.0422C81.2652 13.0422 80.8546 13.258 80.7368 13.6353H79.7091C79.8176 12.7187 80.6866 12.1309 81.9067 12.1309C83.2552 12.1309 84.0157 12.7969 84.0157 13.924V17.57H82.9939V16.8201H82.9099C82.7394 17.0891 82.5 17.3084 82.2162 17.4556C81.9324 17.6028 81.6143 17.6726 81.2943 17.6579C81.0685 17.6812 80.8403 17.6573 80.6244 17.5878C80.4085 17.5182 80.2097 17.4045 80.0408 17.2541C79.8718 17.1036 79.7366 16.9197 79.6437 16.7142C79.5508 16.5087 79.5024 16.2862 79.5015 16.0609ZM82.9589 15.605V15.1588L81.6454 15.2422C80.9047 15.2913 80.5688 15.5413 80.5688 16.0117C80.5688 16.492 80.9887 16.7715 81.5662 16.7715C81.7353 16.7885 81.9062 16.7715 82.0687 16.7217C82.2312 16.6718 82.3818 16.59 82.5118 16.4811C82.6417 16.3723 82.7483 16.2387 82.8251 16.0881C82.9019 15.9376 82.9474 15.7733 82.9589 15.605Z" fill="white"/>
<path d="M85.4106 14.8993C85.4106 13.2131 86.2843 12.145 87.6433 12.145C87.9794 12.1296 88.313 12.2095 88.6051 12.3753C88.8972 12.541 89.1356 12.7859 89.2927 13.0811H89.372V10.1504H90.4335V17.5696H89.4163V16.7266H89.3323C89.1632 17.0199 88.9164 17.2616 88.6187 17.4258C88.3209 17.5899 87.9836 17.67 87.6433 17.6576C86.275 17.6576 85.4106 16.5895 85.4106 14.8993ZM86.5072 14.8993C86.5072 16.0311 87.0449 16.7121 87.9443 16.7121C88.8389 16.7121 89.3918 16.0213 89.3918 14.9039C89.3918 13.7918 88.8331 13.091 87.9443 13.091C87.0507 13.091 86.5072 13.7767 86.5072 14.8993Z" fill="white"/>
<path d="M94.8255 14.8996C94.7917 14.5489 94.8321 14.1951 94.9442 13.8608C95.0563 13.5265 95.2375 13.2192 95.4764 12.9585C95.7152 12.6978 96.0063 12.4895 96.331 12.347C96.6557 12.2045 97.0069 12.1309 97.362 12.1309C97.717 12.1309 98.0682 12.2045 98.3929 12.347C98.7176 12.4895 99.0087 12.6978 99.2476 12.9585C99.4864 13.2192 99.6676 13.5265 99.7797 13.8608C99.8918 14.1951 99.9323 14.5489 99.8985 14.8996C99.9329 15.2506 99.8929 15.6049 99.7812 15.9397C99.6694 16.2745 99.4882 16.5824 99.2493 16.8436C99.0104 17.1048 98.7191 17.3135 98.3941 17.4564C98.069 17.5992 97.7175 17.673 97.362 17.673C97.0065 17.673 96.6549 17.5992 96.3298 17.4564C96.0048 17.3135 95.7135 17.1048 95.4746 16.8436C95.2357 16.5824 95.0546 16.2745 94.9428 15.9397C94.831 15.6049 94.791 15.2506 94.8255 14.8996ZM98.8066 14.8996C98.8066 13.7429 98.2829 13.0665 97.3637 13.0665C96.441 13.0665 95.922 13.7429 95.922 14.8996C95.922 16.0655 96.4411 16.7367 97.3637 16.7367C98.2829 16.7367 98.8066 16.0609 98.8066 14.8996Z" fill="white"/>
<path d="M101.322 12.2333H102.344V13.081H102.423C102.558 12.7765 102.785 12.5213 103.073 12.3509C103.36 12.1804 103.694 12.1033 104.028 12.1303C104.29 12.1107 104.553 12.1499 104.797 12.2448C105.042 12.3397 105.261 12.488 105.44 12.6786C105.619 12.8692 105.752 13.0973 105.83 13.3459C105.908 13.5945 105.929 13.8574 105.89 14.115V17.5694H104.829V14.3794C104.829 13.5219 104.453 13.0954 103.668 13.0954C103.49 13.0872 103.313 13.1172 103.148 13.1834C102.983 13.2495 102.835 13.3503 102.713 13.4787C102.591 13.6072 102.498 13.7603 102.441 13.9275C102.385 14.0948 102.365 14.2722 102.384 14.4477V17.5694H101.322V12.2333Z" fill="white"/>
<path d="M111.888 10.9043V12.2571H113.054V13.1442H111.888V15.8881C111.888 16.447 112.12 16.6918 112.649 16.6918C112.784 16.6914 112.919 16.6833 113.054 16.6675V17.5447C112.863 17.5785 112.67 17.5965 112.476 17.5985C111.296 17.5985 110.826 17.1865 110.826 16.1577V13.1441H109.972V12.2571H110.826V10.9043H111.888Z" fill="white"/>
<path d="M114.503 10.1504H115.556V13.091H115.64C115.781 12.7837 116.014 12.527 116.307 12.356C116.601 12.1849 116.94 12.1078 117.28 12.1351C117.54 12.1211 117.8 12.1642 118.042 12.2614C118.283 12.3586 118.5 12.5076 118.677 12.6976C118.854 12.8876 118.987 13.114 119.065 13.3606C119.144 13.6073 119.167 13.8681 119.132 14.1245V17.5697H118.069V14.3843C118.069 13.5319 117.669 13.1003 116.919 13.1003C116.737 13.0854 116.553 13.1103 116.382 13.1732C116.21 13.236 116.054 13.3354 115.925 13.4642C115.796 13.5931 115.697 13.7484 115.635 13.9192C115.573 14.09 115.549 14.2722 115.565 14.4531V17.5696H114.503L114.503 10.1504Z" fill="white"/>
<path d="M125.322 16.1293C125.177 16.617 124.865 17.0389 124.439 17.3211C124.013 17.6033 123.5 17.7279 122.991 17.6731C122.637 17.6824 122.284 17.615 121.959 17.4758C121.633 17.3365 121.342 17.1286 121.106 16.8666C120.87 16.6045 120.694 16.2945 120.59 15.9582C120.486 15.6219 120.458 15.2672 120.506 14.9188C120.459 14.5694 120.488 14.2139 120.591 13.8766C120.695 13.5392 120.87 13.2278 121.105 12.9635C121.34 12.6991 121.63 12.488 121.954 12.3444C122.279 12.2007 122.631 12.1279 122.986 12.1309C124.483 12.1309 125.386 13.1453 125.386 14.821V15.1885H121.588V15.2475C121.571 15.4433 121.596 15.6404 121.66 15.8262C121.725 16.0119 121.828 16.1822 121.963 16.3262C122.098 16.4701 122.262 16.5845 122.444 16.662C122.626 16.7395 122.822 16.7784 123.02 16.7762C123.274 16.8064 123.531 16.7611 123.759 16.6459C123.987 16.5307 124.175 16.3509 124.3 16.1293L125.322 16.1293ZM121.588 14.4096H124.304C124.318 14.2305 124.293 14.0506 124.232 13.8815C124.171 13.7124 124.076 13.5577 123.951 13.4276C123.826 13.2974 123.675 13.1945 123.508 13.1256C123.341 13.0566 123.161 13.0231 122.98 13.0273C122.797 13.025 122.615 13.0592 122.445 13.1278C122.274 13.1965 122.12 13.2982 121.99 13.4271C121.86 13.5559 121.758 13.7092 121.689 13.878C121.62 14.0467 121.585 14.2275 121.588 14.4096Z" fill="white"/>
</svg>
