<svg width="30" height="31" viewBox="0 0 30 31" fill="none" xmlns="http://www.w3.org/2000/svg">
<path d="M18.675 6.9875C19.1476 6.44285 19.5079 5.81021 19.7353 5.12592C19.9627 4.44163 20.0526 3.71916 20 3C18.5492 3.11711 17.2025 3.79945 16.25 4.9C15.7939 5.42747 15.4482 6.0411 15.2335 6.70456C15.0188 7.36801 14.9394 8.0678 15 8.7625C15.7077 8.7684 16.4072 8.61137 17.0445 8.30357C17.6818 7.99578 18.2397 7.54547 18.675 6.9875ZM21.825 16.2875C21.8334 15.3297 22.0857 14.3898 22.5581 13.5565C23.0305 12.7232 23.7074 12.0241 24.525 11.525C24.009 10.7815 23.3269 10.1685 22.5328 9.73459C21.7387 9.30064 20.8544 9.05769 19.95 9.025C18 8.825 16.2 10.1625 15.1625 10.1625C14.125 10.1625 12.6625 9.05 11.0375 9.075C9.97517 9.10999 8.94004 9.41973 8.03307 9.97398C7.1261 10.5282 6.37827 11.3081 5.86251 12.2375C3.66251 16.0625 5.30001 21.75 7.50001 24.8375C8.50001 26.35 9.75001 28.0625 11.4 28C13.05 27.9375 13.5875 26.975 15.5 26.975C17.4125 26.975 18 28 19.625 27.9625C21.25 27.925 22.4 26.4125 23.45 24.9C24.1938 23.8019 24.7748 22.602 25.175 21.3375C24.1844 20.915 23.3392 20.2116 22.7438 19.3141C22.1485 18.4167 21.829 17.3645 21.825 16.2875Z" fill="white"/>
</svg>
