<svg width="92" height="76" viewBox="0 0 92 76" fill="none" xmlns="http://www.w3.org/2000/svg">
<path id="&#226;&#128;&#156;" d="M3 76C1.34315 76 0 74.6569 0 73C0 68.9152 0 64.8303 0 60.7455C0 55.6607 0.090999 50.9391 0.272997 46.5806C0.818991 31.3262 3.27596 19.7945 7.64392 11.9857C11.7279 4.51471 19.153 0.536374 29.9193 0.0506606C31.2721 -0.0103713 32.4599 0.907238 32.8146 2.21416L34.7905 9.49365C35.2908 11.337 33.9531 13.1479 32.0813 13.5284C27.4099 14.4779 24.269 16.7785 22.6588 20.4301C20.9204 24.3722 19.9368 29.5466 19.7079 35.9532C19.6487 37.609 20.9989 38.9534 22.6558 38.9534H34.6736C36.3304 38.9534 37.6736 40.2966 37.6736 41.9534V73C37.6736 74.6569 36.3304 76 34.6736 76H3ZM57.3264 76C55.6696 76 54.3264 74.6569 54.3264 73C54.3264 68.9152 54.3264 64.8303 54.3264 60.7455C54.3264 55.6607 54.4174 50.9391 54.5994 46.5806C55.1454 31.3262 57.6024 19.7945 61.9703 11.9857C66.0543 4.51471 73.4794 0.536374 84.2457 0.0506606C85.5985 -0.0103713 86.7863 0.907238 87.141 2.21415L89.1169 9.49365C89.6172 11.337 88.2795 13.1479 86.4078 13.5284C81.7363 14.4779 78.5954 16.7785 76.9852 20.4301C75.2468 24.3722 74.2632 29.5466 74.0343 35.9532C73.9751 37.609 75.3253 38.9534 76.9822 38.9534H89C90.6569 38.9534 92 40.2966 92 41.9534V73C92 74.6569 90.6569 76 89 76H57.3264Z" fill="url(#paint0_linear_1_291)" fill-opacity="0.2"/>
<defs>
<linearGradient id="paint0_linear_1_291" x1="-6.98169" y1="100.789" x2="108.769" y2="100.789" gradientUnits="userSpaceOnUse">
<stop stop-color="#4D89F0"/>
<stop offset="1" stop-color="#9184EA"/>
</linearGradient>
</defs>
</svg>
