<svg width="30" height="30" viewBox="0 0 30 30" fill="none" xmlns="http://www.w3.org/2000/svg">
<g id="menu">
<path id="Union" fill-rule="evenodd" clip-rule="evenodd" d="M5 8.75C5 8.05964 5.55964 7.5 6.25 7.5H23.75C24.4404 7.5 25 8.05964 25 8.75C25 9.44036 24.4404 10 23.75 10H6.25C5.55964 10 5 9.44036 5 8.75ZM5 15.0001C5 14.3097 5.55964 13.7501 6.25 13.7501H13.75C14.4404 13.7501 15 14.3097 15 15.0001C15 15.6904 14.4404 16.2501 13.75 16.2501H6.25C5.55964 16.2501 5 15.6904 5 15.0001ZM6.25 20C5.55964 20 5 20.5597 5 21.25C5 21.9404 5.55964 22.5 6.25 22.5H23.75C24.4404 22.5 25 21.9404 25 21.25C25 20.5597 24.4404 20 23.75 20H6.25Z" fill="url(#paint0_linear_1_404)"/>
</g>
<defs>
<linearGradient id="paint0_linear_1_404" x1="5" y1="15" x2="25" y2="15" gradientUnits="userSpaceOnUse">
<stop stop-color="#4D89F0"/>
<stop offset="1" stop-color="#9184EA"/>
</linearGradient>
</defs>
</svg>
