<svg width="62" height="62" viewBox="0 0 62 62" fill="none" xmlns="http://www.w3.org/2000/svg">
<path d="M31 6.45834C34.0383 6.45741 36.9968 7.43043 39.4414 9.23458C41.886 11.0387 43.6879 13.579 44.5826 16.4825C45.4773 19.386 45.4178 22.4999 44.4127 25.3671C43.4075 28.2343 41.5098 30.7038 38.998 32.4131C43.3578 34.0122 47.1392 36.8795 49.8555 40.646C52.5718 44.4124 54.0987 48.9057 54.2397 53.5473C54.2528 53.805 54.2144 54.0627 54.1267 54.3053C54.0389 54.5479 53.9036 54.7705 53.7287 54.9601C53.5537 55.1497 53.3427 55.3025 53.1079 55.4094C52.8732 55.5164 52.6194 55.5754 52.3615 55.5829C52.1037 55.5905 51.8469 55.5465 51.6063 55.4535C51.3656 55.3605 51.146 55.2204 50.9602 55.0414C50.7745 54.8623 50.6263 54.648 50.5245 54.411C50.4227 54.174 50.3692 53.919 50.3672 53.661C50.2134 48.6273 48.1056 43.8512 44.4906 40.345C40.8756 36.8387 36.0374 34.8779 31.0013 34.8779C25.9652 34.8779 21.127 36.8387 17.512 40.345C13.8969 43.8512 11.7892 48.6273 11.6353 53.661C11.6199 54.1749 11.401 54.6615 11.0268 55.014C10.6525 55.3665 10.1536 55.5558 9.63971 55.5404C9.12585 55.525 8.63916 55.306 8.28671 54.9318C7.93426 54.5575 7.74492 54.0586 7.76033 53.5448C7.90177 48.9036 9.42889 44.4109 12.1452 40.6449C14.8615 36.8789 18.6426 34.012 23.002 32.4131C20.4902 30.7038 18.5925 28.2343 17.5873 25.3671C16.5822 22.4999 16.5226 19.386 17.4174 16.4825C18.3121 13.579 20.114 11.0387 22.5586 9.23458C25.0032 7.43043 27.9617 6.45741 31 6.45834ZM20.6667 20.6667C20.6667 23.4072 21.7554 26.0356 23.6932 27.9734C25.6311 29.9113 28.2594 31 31 31C33.7406 31 36.3689 29.9113 38.3068 27.9734C40.2446 26.0356 41.3333 23.4072 41.3333 20.6667C41.3333 17.9261 40.2446 15.2978 38.3068 13.3599C36.3689 11.422 33.7406 10.3333 31 10.3333C28.2594 10.3333 25.6311 11.422 23.6932 13.3599C21.7554 15.2978 20.6667 17.9261 20.6667 20.6667Z" fill="url(#paint0_linear_1_299)"/>
<defs>
<linearGradient id="paint0_linear_1_299" x1="7.75946" y1="31.0211" x2="54.2422" y2="31.0211" gradientUnits="userSpaceOnUse">
<stop stop-color="#4D89F0"/>
<stop offset="1" stop-color="#9184EA"/>
</linearGradient>
</defs>
</svg>
