<svg width="28" height="28" viewBox="0 0 28 28" fill="none" xmlns="http://www.w3.org/2000/svg">
<g filter="url(#filter0_b_280_1057)">
<rect width="27.23" height="27.23" rx="5.92" fill="white" fill-opacity="0.15"/>
<rect x="0.59" y="0.59" width="26.05" height="26.05" rx="5.33" stroke="white" stroke-opacity="0.4" stroke-width="1.18"/>
<g clip-path="url(#clip0_280_1057)">
<path fill-rule="evenodd" clip-rule="evenodd" d="M15.4046 7.26412L16.0702 6.05292C16.0826 6.02279 16.0834 5.98916 16.0726 5.95845C16.0617 5.92774 16.0399 5.90213 16.0113 5.8865C15.9827 5.87088 15.9494 5.86634 15.9176 5.87376C15.8859 5.88119 15.8581 5.90004 15.8394 5.92673L15.1668 7.15023C14.5781 6.89121 13.9417 6.75806 13.2985 6.75933C12.6298 6.75933 11.998 6.89861 11.4332 7.14869L10.7591 5.92673C10.751 5.91143 10.7399 5.89791 10.7265 5.88695C10.713 5.87598 10.6976 5.86779 10.681 5.86285C10.6644 5.85791 10.6469 5.85632 10.6297 5.85817C10.6125 5.86002 10.5958 5.86528 10.5806 5.87363C10.5653 5.88178 10.5518 5.89288 10.5408 5.9063C10.5299 5.91972 10.5217 5.93518 10.5167 5.95179C10.5118 5.9684 10.5102 5.98583 10.5121 6.00305C10.5139 6.02028 10.5192 6.03697 10.5275 6.05216L11.1939 7.26181C9.88576 7.93435 9.00083 9.21403 9.0016 10.6838L17.5938 10.683C17.5938 9.21326 16.712 7.93666 15.4046 7.26412ZM11.3432 9.13323C11.296 9.13318 11.2493 9.12384 11.2057 9.10573C11.1621 9.08763 11.1225 9.06111 11.0892 9.02771C11.0559 8.9943 11.0294 8.95466 11.0114 8.91104C10.9934 8.86742 10.9842 8.82068 10.9842 8.77349C10.9843 8.7263 10.9936 8.67958 11.0117 8.636C11.0298 8.59242 11.0563 8.55283 11.0897 8.5195C11.1231 8.48617 11.1628 8.45974 11.2064 8.44173C11.25 8.42371 11.2968 8.41447 11.344 8.41452C11.4394 8.41452 11.5309 8.45242 11.5983 8.51989C11.6658 8.58735 11.7037 8.67885 11.7037 8.77426C11.7037 8.86967 11.6658 8.96117 11.5983 9.02864C11.5309 9.0961 11.4394 9.134 11.344 9.134M17.5646 11.0131L17.5661 17.1784C17.5661 17.5485 17.3645 17.8686 17.0675 18.0456C16.911 18.141 16.7313 18.1915 16.5481 18.1918L15.8525 18.1926V20.2964C15.8523 20.4378 15.8207 20.5773 15.7599 20.705C15.6991 20.8326 15.6106 20.9451 15.5009 21.0343C15.3912 21.1234 15.263 21.187 15.1256 21.2205C14.9882 21.2539 14.8451 21.2563 14.7067 21.2275C14.4922 21.1833 14.2995 21.0668 14.1608 20.8974C14.0221 20.728 13.9458 20.5161 13.9449 20.2971V18.1926H12.656V20.2971C12.6555 20.5495 12.555 20.7913 12.3763 20.9695C12.1977 21.1477 11.9556 21.2477 11.7033 21.2475C11.4512 21.2471 11.2095 21.1469 11.031 20.9688C10.8525 20.7907 10.7517 20.5493 10.7507 20.2971V18.1926H10.0574C9.65644 18.1926 9.31325 17.9617 9.14781 17.6262C9.0774 17.4876 9.04025 17.3346 9.03931 17.1791L9.03777 11.0154L17.5646 11.0131ZM7.71346 10.8361C8.2398 10.8361 8.66764 11.2617 8.66764 11.7857V15.764C8.66764 15.8292 8.66122 15.893 8.6484 15.9556C8.61677 16.1081 8.54822 16.2506 8.44876 16.3705C8.34929 16.4904 8.22195 16.584 8.07788 16.6433C7.93381 16.7025 7.77741 16.7255 7.62238 16.7103C7.46735 16.695 7.31843 16.642 7.18866 16.5558C7.05697 16.4697 6.94882 16.3522 6.87398 16.2138C6.79915 16.0754 6.75999 15.9206 6.76005 15.7632L6.75928 11.7857C6.75928 11.2624 7.18635 10.8361 7.71346 10.8361ZM18.8866 10.8354C19.4129 10.8354 19.8408 11.2601 19.8408 11.7849V15.7625C19.8408 16.288 19.4137 16.7128 18.8874 16.7128C18.3603 16.7128 17.9332 16.288 17.9332 15.7625V11.7842C17.9332 11.2594 18.3595 10.8338 18.8858 10.8346M15.2546 8.41606C15.3031 8.41381 15.3516 8.42143 15.3971 8.43846C15.4426 8.45548 15.4842 8.48156 15.5193 8.51512C15.5545 8.54867 15.5825 8.589 15.6016 8.63368C15.6207 8.67835 15.6305 8.72644 15.6305 8.77503C15.6305 8.82362 15.6207 8.87171 15.6016 8.91638C15.5825 8.96106 15.5545 9.00139 15.5193 9.03495C15.4842 9.0685 15.4426 9.09458 15.3971 9.11161C15.3516 9.12863 15.3031 9.13625 15.2546 9.134C15.206 9.13625 15.1575 9.12863 15.112 9.11161C15.0665 9.09458 15.0249 9.0685 14.9898 9.03495C14.9546 9.00139 14.9267 8.96106 14.9075 8.91638C14.8884 8.87171 14.8786 8.82362 14.8786 8.77503C14.8786 8.72644 14.8884 8.67835 14.9075 8.63368C14.9267 8.589 14.9546 8.54867 14.9898 8.51512C15.0249 8.48156 15.0665 8.45548 15.112 8.43846C15.1575 8.42143 15.206 8.41381 15.2546 8.41606Z" fill="white"/>
</g>
</g>
<defs>
<filter id="filter0_b_280_1057" x="-26.2745" y="-26.2745" width="79.7791" height="79.7796" filterUnits="userSpaceOnUse" color-interpolation-filters="sRGB">
<feFlood flood-opacity="0" result="BackgroundImageFix"/>
<feGaussianBlur in="BackgroundImageFix" stdDeviation="13.1373"/>
<feComposite in2="SourceAlpha" operator="in" result="effect1_backgroundBlur_280_1057"/>
<feBlend mode="normal" in="SourceGraphic" in2="effect1_backgroundBlur_280_1057" result="shape"/>
</filter>
<clipPath id="clip0_280_1057">
<rect width="15.39" height="15.39" fill="white" transform="translate(5.91992 5.91992)"/>
</clipPath>
</defs>
</svg>
