<svg width="28" height="28" viewBox="0 0 28 28" fill="none" xmlns="http://www.w3.org/2000/svg">
<g filter="url(#filter0_b_280_1060)">
<rect width="27.23" height="27.23" rx="5.92" fill="url(#paint0_linear_280_1060)" fill-opacity="0.3"/>
<rect x="0.59" y="0.59" width="26.05" height="26.05" rx="5.33" stroke="url(#paint1_linear_280_1060)" stroke-opacity="0.3" stroke-width="1.18"/>
<g clip-path="url(#clip0_280_1060)">
<path fill-rule="evenodd" clip-rule="evenodd" d="M15.7196 7.32662L16.3852 6.11542C16.3975 6.08529 16.3984 6.05166 16.3875 6.02095C16.3766 5.99024 16.3548 5.96463 16.3262 5.949C16.2976 5.93338 16.2643 5.92884 16.2326 5.93626C16.2009 5.94369 16.173 5.96254 16.1543 5.98923L15.4818 7.21273C14.893 6.95371 14.2566 6.82056 13.6134 6.82183C12.9447 6.82183 12.313 6.96111 11.7482 7.21119L11.0741 5.98923C11.0659 5.97393 11.0548 5.96041 11.0414 5.94945C11.028 5.93848 11.0125 5.93029 10.9959 5.92535C10.9793 5.92041 10.9619 5.91882 10.9447 5.92067C10.9274 5.92252 10.9107 5.92778 10.8956 5.93613C10.8803 5.94428 10.8667 5.95538 10.8558 5.9688C10.8448 5.98222 10.8366 5.99768 10.8317 6.01429C10.8267 6.0309 10.8251 6.04833 10.827 6.06555C10.8288 6.08278 10.8341 6.09947 10.8425 6.11466L11.5088 7.32431C10.2007 7.99685 9.31577 9.27653 9.31654 10.7463L17.9088 10.7455C17.9088 9.27576 17.0269 7.99916 15.7196 7.32662ZM11.6581 9.19573C11.6109 9.19568 11.5642 9.18634 11.5206 9.16823C11.4771 9.15013 11.4375 9.12361 11.4041 9.09021C11.3708 9.0568 11.3444 9.01716 11.3264 8.97354C11.3084 8.92992 11.2991 8.88318 11.2992 8.83599C11.2992 8.7888 11.3086 8.74208 11.3267 8.6985C11.3448 8.65492 11.3713 8.61533 11.4047 8.582C11.4381 8.54867 11.4777 8.52224 11.5214 8.50423C11.565 8.48621 11.6117 8.47697 11.6589 8.47702C11.7543 8.47702 11.8458 8.51492 11.9133 8.58239C11.9807 8.64985 12.0186 8.74135 12.0186 8.83676C12.0186 8.93217 11.9807 9.02367 11.9133 9.09114C11.8458 9.1586 11.7543 9.1965 11.6589 9.1965M17.8795 11.0756L17.8811 17.2409C17.8811 17.611 17.6795 17.9311 17.3824 18.1081C17.226 18.2035 17.0463 18.254 16.863 18.2543L16.1674 18.2551V20.3589C16.1673 20.5003 16.1357 20.6398 16.0748 20.7675C16.014 20.8951 15.9256 21.0076 15.8158 21.0968C15.7061 21.1859 15.5779 21.2495 15.4405 21.283C15.3031 21.3164 15.16 21.3188 15.0216 21.29C14.8072 21.2458 14.6144 21.1293 14.4757 20.9599C14.337 20.7905 14.2608 20.5786 14.2598 20.3596V18.2551H12.9709V20.3596C12.9705 20.612 12.8699 20.8538 12.6913 21.032C12.5127 21.2102 12.2706 21.3102 12.0183 21.31C11.7661 21.3096 11.5244 21.2094 11.3459 21.0313C11.1674 20.8532 11.0666 20.6118 11.0656 20.3596V18.2551H10.3723C9.97139 18.2551 9.62819 18.0242 9.46275 17.6887C9.39234 17.5501 9.35519 17.3971 9.35425 17.2416L9.35271 11.0779L17.8795 11.0756ZM8.0284 10.8986C8.55474 10.8986 8.98258 11.3242 8.98258 11.8482V15.8265C8.98258 15.8917 8.97617 15.9555 8.96334 16.0181C8.93171 16.1706 8.86316 16.3131 8.7637 16.433C8.66423 16.5529 8.53689 16.6465 8.39282 16.7058C8.24875 16.765 8.09235 16.788 7.93732 16.7728C7.7823 16.7575 7.63337 16.7045 7.5036 16.6183C7.37191 16.5322 7.26376 16.4147 7.18893 16.2763C7.11409 16.1379 7.07493 15.9831 7.07499 15.8257L7.07422 11.8482C7.07422 11.3249 7.50129 10.8986 8.0284 10.8986ZM19.2015 10.8979C19.7279 10.8979 20.1557 11.3226 20.1557 11.8474V15.825C20.1557 16.3505 19.7286 16.7753 19.2023 16.7753C18.6752 16.7753 18.2481 16.3505 18.2481 15.825V11.8467C18.2481 11.3219 18.6744 10.8963 19.2008 10.8971M15.5695 8.47856C15.618 8.47631 15.6665 8.48393 15.712 8.50096C15.7575 8.51798 15.7991 8.54406 15.8343 8.57762C15.8694 8.61117 15.8974 8.6515 15.9165 8.69618C15.9356 8.74085 15.9455 8.78894 15.9455 8.83753C15.9455 8.88612 15.9356 8.93421 15.9165 8.97888C15.8974 9.02356 15.8694 9.06389 15.8343 9.09745C15.7991 9.131 15.7575 9.15708 15.712 9.17411C15.6665 9.19113 15.618 9.19875 15.5695 9.1965C15.521 9.19875 15.4725 9.19113 15.427 9.17411C15.3814 9.15708 15.3399 9.131 15.3047 9.09745C15.2696 9.06389 15.2416 9.02356 15.2225 8.97888C15.2034 8.93421 15.1935 8.88612 15.1935 8.83753C15.1935 8.78894 15.2034 8.74085 15.2225 8.69618C15.2416 8.6515 15.2696 8.61117 15.3047 8.57762C15.3399 8.54406 15.3814 8.51798 15.427 8.50096C15.4725 8.48393 15.521 8.47631 15.5695 8.47856Z" fill="url(#paint2_linear_280_1060)"/>
</g>
</g>
<defs>
<filter id="filter0_b_280_1060" x="-26.2745" y="-26.2745" width="79.7791" height="79.7796" filterUnits="userSpaceOnUse" color-interpolation-filters="sRGB">
<feFlood flood-opacity="0" result="BackgroundImageFix"/>
<feGaussianBlur in="BackgroundImageFix" stdDeviation="13.1373"/>
<feComposite in2="SourceAlpha" operator="in" result="effect1_backgroundBlur_280_1060"/>
<feBlend mode="normal" in="SourceGraphic" in2="effect1_backgroundBlur_280_1060" result="shape"/>
</filter>
<linearGradient id="paint0_linear_280_1060" x1="-2.02879e-07" y1="13.615" x2="27.23" y2="13.615" gradientUnits="userSpaceOnUse">
<stop stop-color="#4D89F0"/>
<stop offset="1" stop-color="#9184EA"/>
</linearGradient>
<linearGradient id="paint1_linear_280_1060" x1="-2.02879e-07" y1="13.615" x2="27.23" y2="13.615" gradientUnits="userSpaceOnUse">
<stop stop-color="#4D89F0"/>
<stop offset="1" stop-color="#9184EA"/>
</linearGradient>
<linearGradient id="paint2_linear_280_1060" x1="7.07422" y1="13.6149" x2="20.1557" y2="13.6149" gradientUnits="userSpaceOnUse">
<stop stop-color="#4D89F0"/>
<stop offset="1" stop-color="#9184EA"/>
</linearGradient>
<clipPath id="clip0_280_1060">
<rect width="15.39" height="15.39" fill="white" transform="translate(5.91992 5.91992)"/>
</clipPath>
</defs>
</svg>
