<svg width="61" height="61" viewBox="0 0 61 61" fill="none" xmlns="http://www.w3.org/2000/svg">
<g filter="url(#filter0_b_167_266)">
<rect y="0.431641" width="60.4315" height="60.4315" rx="13.1373" fill="url(#paint0_linear_167_266)" fill-opacity="0.3"/>
<rect x="1.31373" y="1.74537" width="57.804" height="57.804" rx="11.8235" stroke="url(#paint1_linear_167_266)" stroke-opacity="0.3" stroke-width="2.62745"/>
<g clip-path="url(#clip0_167_266)">
<path fill-rule="evenodd" clip-rule="evenodd" d="M34.8864 16.6909L36.3637 14.0028C36.3912 13.9359 36.393 13.8612 36.3689 13.7931C36.3448 13.7249 36.2963 13.6681 36.2329 13.6334C36.1695 13.5987 36.0955 13.5886 36.0251 13.6051C35.9547 13.6216 35.8928 13.6634 35.8514 13.7227L34.3587 16.4381C33.052 15.8633 31.6396 15.5677 30.2121 15.5706C28.7279 15.5706 27.3258 15.8797 26.0722 16.4347L24.5762 13.7227C24.5581 13.6887 24.5334 13.6587 24.5037 13.6344C24.4739 13.61 24.4396 13.5919 24.4027 13.5809C24.3658 13.5699 24.3272 13.5664 24.2889 13.5705C24.2507 13.5746 24.2136 13.5863 24.18 13.6048C24.146 13.6229 24.116 13.6476 24.0917 13.6773C24.0673 13.7071 24.0491 13.7414 24.0382 13.7783C24.0272 13.8152 24.0237 13.8538 24.0278 13.8921C24.0319 13.9303 24.0436 13.9673 24.0621 14.001L25.5411 16.6858C22.6378 18.1784 20.6737 21.0186 20.6755 24.2806L39.7453 24.2789C39.7453 21.0169 37.7881 18.1836 34.8864 16.6909ZM25.8724 20.8393C25.7677 20.8391 25.664 20.8184 25.5673 20.7782C25.4706 20.738 25.3827 20.6792 25.3087 20.6051C25.2347 20.5309 25.1761 20.4429 25.1361 20.3461C25.0961 20.2493 25.0756 20.1456 25.0757 20.0408C25.0758 19.9361 25.0966 19.8324 25.1368 19.7357C25.1769 19.639 25.2358 19.5511 25.3099 19.4771C25.3841 19.4031 25.472 19.3445 25.5689 19.3045C25.6657 19.2645 25.7694 19.244 25.8741 19.2441C26.0859 19.2441 26.289 19.3282 26.4387 19.478C26.5884 19.6277 26.6726 19.8308 26.6726 20.0425C26.6726 20.2543 26.5884 20.4574 26.4387 20.6071C26.289 20.7568 26.0859 20.841 25.8741 20.841M39.6804 25.0115L39.6838 38.6948C39.6838 39.5163 39.2363 40.2267 38.5771 40.6195C38.2298 40.8312 37.831 40.9435 37.4243 40.944L35.8804 40.9457V45.615C35.8801 45.9288 35.81 46.2386 35.675 46.5218C35.54 46.8051 35.3436 47.0548 35.1001 47.2527C34.8566 47.4506 34.572 47.5917 34.2671 47.6659C33.9622 47.7401 33.6446 47.7454 33.3374 47.6815C32.8615 47.5835 32.4337 47.3249 32.1259 46.9489C31.818 46.573 31.6488 46.1026 31.6467 45.6167V40.9457H28.786V45.6167C28.7851 46.1767 28.5619 46.7134 28.1654 47.1089C27.769 47.5044 27.2317 47.7263 26.6717 47.7259C26.1121 47.725 25.5756 47.5026 25.1795 47.1074C24.7833 46.7122 24.5596 46.1763 24.5574 45.6167V40.9457H23.0186C22.1288 40.9457 21.3671 40.4334 20.9999 39.6887C20.8437 39.3812 20.7612 39.0415 20.7591 38.6965L20.7557 25.0166L39.6804 25.0115ZM17.8165 24.6187C18.9847 24.6187 19.9342 25.5632 19.9342 26.7262V35.5558C19.9342 35.7004 19.92 35.8421 19.8916 35.981C19.8214 36.3195 19.6692 36.6357 19.4485 36.9018C19.2277 37.1678 18.9451 37.3757 18.6253 37.5072C18.3056 37.6387 17.9585 37.6897 17.6144 37.6559C17.2703 37.6221 16.9398 37.5044 16.6518 37.3131C16.3595 37.1221 16.1195 36.8612 15.9534 36.5541C15.7873 36.2469 15.7004 35.9032 15.7005 35.5541L15.6988 26.7262C15.6988 25.5649 16.6466 24.6187 17.8165 24.6187ZM42.6144 24.617C43.7826 24.617 44.7322 25.5597 44.7322 26.7245V35.5523C44.7322 36.7188 43.7843 37.6615 42.6161 37.6615C41.4463 37.6615 40.4984 36.7188 40.4984 35.5523V26.7228C40.4984 25.558 41.4446 24.6136 42.6127 24.6153M34.5534 19.2475C34.6611 19.2426 34.7688 19.2595 34.8698 19.2973C34.9708 19.335 35.0631 19.3929 35.1411 19.4674C35.2191 19.5419 35.2812 19.6314 35.3236 19.7305C35.366 19.8297 35.3879 19.9364 35.3879 20.0443C35.3879 20.1521 35.366 20.2588 35.3236 20.358C35.2812 20.4571 35.2191 20.5466 35.1411 20.6211C35.0631 20.6956 34.9708 20.7535 34.8698 20.7913C34.7688 20.829 34.6611 20.846 34.5534 20.841C34.4457 20.846 34.3381 20.829 34.237 20.7913C34.136 20.7535 34.0437 20.6956 33.9657 20.6211C33.8877 20.5466 33.8257 20.4571 33.7832 20.358C33.7408 20.2588 33.7189 20.1521 33.7189 20.0443C33.7189 19.9364 33.7408 19.8297 33.7832 19.7305C33.8257 19.6314 33.8877 19.5419 33.9657 19.4674C34.0437 19.3929 34.136 19.335 34.237 19.2973C34.3381 19.2595 34.4457 19.2426 34.5534 19.2475Z" fill="url(#paint2_linear_167_266)"/>
</g>
</g>
<defs>
<filter id="filter0_b_167_266" x="-26.2745" y="-25.8429" width="112.981" height="112.981" filterUnits="userSpaceOnUse" color-interpolation-filters="sRGB">
<feFlood flood-opacity="0" result="BackgroundImageFix"/>
<feGaussianBlur in="BackgroundImageFix" stdDeviation="13.1373"/>
<feComposite in2="SourceAlpha" operator="in" result="effect1_backgroundBlur_167_266"/>
<feBlend mode="normal" in="SourceGraphic" in2="effect1_backgroundBlur_167_266" result="shape"/>
</filter>
<linearGradient id="paint0_linear_167_266" x1="-4.50249e-07" y1="30.6474" x2="60.4315" y2="30.6474" gradientUnits="userSpaceOnUse">
<stop stop-color="#4D89F0"/>
<stop offset="1" stop-color="#9184EA"/>
</linearGradient>
<linearGradient id="paint1_linear_167_266" x1="-4.50249e-07" y1="30.6474" x2="60.4315" y2="30.6474" gradientUnits="userSpaceOnUse">
<stop stop-color="#4D89F0"/>
<stop offset="1" stop-color="#9184EA"/>
</linearGradient>
<linearGradient id="paint2_linear_167_266" x1="15.6988" y1="30.6474" x2="44.7322" y2="30.6474" gradientUnits="userSpaceOnUse">
<stop stop-color="#4D89F0"/>
<stop offset="1" stop-color="#9184EA"/>
</linearGradient>
<clipPath id="clip0_167_266">
<rect width="34.1569" height="34.1569" fill="white" transform="translate(13.1372 13.5688)"/>
</clipPath>
</defs>
</svg>
