<svg width="28" height="28" viewBox="0 0 28 28" fill="none" xmlns="http://www.w3.org/2000/svg">
<g filter="url(#filter0_b_280_1069)">
<rect width="27.23" height="27.23" rx="5.92" fill="white" fill-opacity="0.15"/>
<rect x="0.59" y="0.59" width="26.05" height="26.05" rx="5.33" stroke="white" stroke-opacity="0.4" stroke-width="1.18"/>
<path d="M15.5005 9.24676C15.7429 8.96735 15.9278 8.64281 16.0444 8.29177C16.1611 7.94073 16.2072 7.5701 16.1802 7.20117C15.436 7.26125 14.7451 7.61129 14.2565 8.17587C14.0225 8.44646 13.8452 8.76126 13.735 9.10161C13.6249 9.44196 13.5841 9.80096 13.6152 10.1573C13.9783 10.1604 14.3371 10.0798 14.664 9.9219C14.991 9.76401 15.2772 9.533 15.5005 9.24676ZM17.1164 14.0177C17.1207 13.5263 17.2502 13.0441 17.4925 12.6167C17.7349 12.1892 18.0821 11.8305 18.5015 11.5745C18.2369 11.1931 17.8869 10.8786 17.4795 10.656C17.0722 10.4334 16.6185 10.3088 16.1546 10.292C15.1542 10.1894 14.2308 10.8755 13.6986 10.8755C13.1663 10.8755 12.4161 10.3048 11.5825 10.3176C11.0375 10.3356 10.5065 10.4945 10.0412 10.7788C9.57591 11.0632 9.19227 11.4632 8.92768 11.94C7.79908 13.9022 8.63912 16.8199 9.76772 18.4038C10.2807 19.1797 10.922 20.0582 11.7684 20.0262C12.6149 19.9941 12.8906 19.5003 13.8717 19.5003C14.8528 19.5003 15.1542 20.0262 15.9878 20.0069C16.8215 19.9877 17.4114 19.2118 17.9501 18.4359C18.3316 17.8726 18.6297 17.257 18.835 16.6083C18.3268 16.3916 17.8932 16.0307 17.5878 15.5703C17.2824 15.1099 17.1185 14.5701 17.1164 14.0177Z" fill="white"/>
</g>
<defs>
<filter id="filter0_b_280_1069" x="-26.2745" y="-26.2745" width="79.7791" height="79.7796" filterUnits="userSpaceOnUse" color-interpolation-filters="sRGB">
<feFlood flood-opacity="0" result="BackgroundImageFix"/>
<feGaussianBlur in="BackgroundImageFix" stdDeviation="13.1373"/>
<feComposite in2="SourceAlpha" operator="in" result="effect1_backgroundBlur_280_1069"/>
<feBlend mode="normal" in="SourceGraphic" in2="effect1_backgroundBlur_280_1069" result="shape"/>
</filter>
</defs>
</svg>
