<svg width="61" height="61" viewBox="0 0 61 61" fill="none" xmlns="http://www.w3.org/2000/svg">
<g filter="url(#filter0_b_167_264)">
<rect width="60.4315" height="60.4315" rx="13.1373" fill="white" fill-opacity="0.15"/>
<rect x="1.31373" y="1.31373" width="57.804" height="57.804" rx="11.8235" stroke="white" stroke-opacity="0.4" stroke-width="2.62745"/>
<g clip-path="url(#clip0_167_264)">
<path fill-rule="evenodd" clip-rule="evenodd" d="M34.8864 16.2593L36.3637 13.5711C36.3912 13.5042 36.393 13.4296 36.3689 13.3614C36.3448 13.2933 36.2963 13.2364 36.2329 13.2018C36.1695 13.1671 36.0955 13.157 36.0251 13.1735C35.9547 13.1899 35.8928 13.2318 35.8514 13.291L34.3587 16.0065C33.052 15.4316 31.6396 15.1361 30.2121 15.1389C28.7279 15.1389 27.3258 15.448 26.0722 16.0031L24.5762 13.291C24.5581 13.2571 24.5334 13.2271 24.5037 13.2027C24.4739 13.1784 24.4396 13.1602 24.4027 13.1493C24.3658 13.1383 24.3272 13.1348 24.2889 13.1389C24.2507 13.143 24.2136 13.1546 24.18 13.1732C24.146 13.1913 24.116 13.2159 24.0917 13.2457C24.0673 13.2755 24.0491 13.3098 24.0382 13.3467C24.0272 13.3835 24.0237 13.4222 24.0278 13.4604C24.0319 13.4987 24.0436 13.5357 24.0621 13.5694L25.5411 16.2541C22.6378 17.7468 20.6737 20.5869 20.6755 23.8489L39.7453 23.8472C39.7453 20.5852 37.7881 17.7519 34.8864 16.2593ZM25.8724 20.4076C25.7677 20.4075 25.664 20.3868 25.5673 20.3466C25.4706 20.3064 25.3827 20.2476 25.3087 20.1734C25.2347 20.0993 25.1761 20.0113 25.1361 19.9145C25.0961 19.8177 25.0756 19.7139 25.0757 19.6092C25.0758 19.5045 25.0966 19.4008 25.1368 19.304C25.1769 19.2073 25.2358 19.1195 25.3099 19.0455C25.3841 18.9715 25.472 18.9129 25.5689 18.8729C25.6657 18.8329 25.7694 18.8124 25.8741 18.8125C26.0859 18.8125 26.289 18.8966 26.4387 19.0463C26.5884 19.1961 26.6726 19.3992 26.6726 19.6109C26.6726 19.8227 26.5884 20.0257 26.4387 20.1755C26.289 20.3252 26.0859 20.4093 25.8741 20.4093M39.6804 24.5799L39.6838 38.2631C39.6838 39.0846 39.2363 39.7951 38.5771 40.1879C38.2298 40.3996 37.831 40.5118 37.4243 40.5124L35.8804 40.5141V45.1833C35.8801 45.4971 35.81 45.8069 35.675 46.0902C35.54 46.3735 35.3436 46.6231 35.1001 46.821C34.8566 47.0189 34.572 47.1601 34.2671 47.2343C33.9622 47.3084 33.6446 47.3138 33.3374 47.2498C32.8615 47.1519 32.4337 46.8932 32.1259 46.5173C31.818 46.1413 31.6488 45.6709 31.6467 45.185V40.5141H28.786V45.185C28.7851 45.745 28.5619 46.2818 28.1654 46.6773C27.769 47.0728 27.2317 47.2947 26.6717 47.2942C26.1121 47.2933 25.5756 47.071 25.1795 46.6758C24.7833 46.2806 24.5596 45.7446 24.5574 45.185V40.5141H23.0186C22.1288 40.5141 21.3671 40.0017 20.9999 39.2571C20.8437 38.9496 20.7612 38.6098 20.7591 38.2648L20.7557 24.585L39.6804 24.5799ZM17.8165 24.1871C18.9847 24.1871 19.9342 25.1315 19.9342 26.2946V35.1241C19.9342 35.2687 19.92 35.4105 19.8916 35.5494C19.8214 35.8879 19.6692 36.204 19.4485 36.4701C19.2277 36.7362 18.9451 36.9441 18.6253 37.0755C18.3056 37.207 17.9585 37.2581 17.6144 37.2242C17.2703 37.1904 16.9398 37.0727 16.6518 36.8815C16.3595 36.6904 16.1195 36.4296 15.9534 36.1224C15.7873 35.8153 15.7004 35.4716 15.7005 35.1224L15.6988 26.2946C15.6988 25.1332 16.6466 24.1871 17.8165 24.1871ZM42.6144 24.1854C43.7826 24.1854 44.7322 25.1281 44.7322 26.2929V35.1207C44.7322 36.2872 43.7843 37.2299 42.6161 37.2299C41.4463 37.2299 40.4984 36.2872 40.4984 35.1207V26.2911C40.4984 25.1264 41.4446 24.182 42.6127 24.1837M34.5534 18.8159C34.6611 18.8109 34.7688 18.8278 34.8698 18.8656C34.9708 18.9034 35.0631 18.9613 35.1411 19.0358C35.2191 19.1102 35.2812 19.1997 35.3236 19.2989C35.366 19.398 35.3879 19.5048 35.3879 19.6126C35.3879 19.7205 35.366 19.8272 35.3236 19.9263C35.2812 20.0255 35.2191 20.115 35.1411 20.1895C35.0631 20.2639 34.9708 20.3218 34.8698 20.3596C34.7688 20.3974 34.6611 20.4143 34.5534 20.4093C34.4457 20.4143 34.3381 20.3974 34.237 20.3596C34.136 20.3218 34.0437 20.2639 33.9657 20.1895C33.8877 20.115 33.8257 20.0255 33.7832 19.9263C33.7408 19.8272 33.7189 19.7205 33.7189 19.6126C33.7189 19.5048 33.7408 19.398 33.7832 19.2989C33.8257 19.1997 33.8877 19.1102 33.9657 19.0358C34.0437 18.9613 34.136 18.9034 34.237 18.8656C34.3381 18.8278 34.4457 18.8109 34.5534 18.8159Z" fill="white"/>
</g>
</g>
<defs>
<filter id="filter0_b_167_264" x="-26.2745" y="-26.2745" width="112.981" height="112.981" filterUnits="userSpaceOnUse" color-interpolation-filters="sRGB">
<feFlood flood-opacity="0" result="BackgroundImageFix"/>
<feGaussianBlur in="BackgroundImageFix" stdDeviation="13.1373"/>
<feComposite in2="SourceAlpha" operator="in" result="effect1_backgroundBlur_167_264"/>
<feBlend mode="normal" in="SourceGraphic" in2="effect1_backgroundBlur_167_264" result="shape"/>
</filter>
<clipPath id="clip0_167_264">
<rect width="34.1569" height="34.1569" fill="white" transform="translate(13.1372 13.1372)"/>
</clipPath>
</defs>
</svg>
