<svg width="61" height="61" viewBox="0 0 61 61" fill="none" xmlns="http://www.w3.org/2000/svg">
<g filter="url(#filter0_b_167_263)">
<rect x="0.568481" width="60.4315" height="60.4315" rx="13.1373" fill="white" fill-opacity="0.15"/>
<rect x="1.88221" y="1.31373" width="57.804" height="57.804" rx="11.8235" stroke="white" stroke-opacity="0.4" stroke-width="2.62745"/>
<path d="M34.9687 20.5234C35.5068 19.9033 35.917 19.183 36.1759 18.4039C36.4348 17.6248 36.5372 16.8022 36.4773 15.9834C34.8255 16.1167 33.2922 16.8936 32.2077 18.1467C31.6884 18.7472 31.2948 19.4459 31.0504 20.2013C30.8059 20.9567 30.7155 21.7534 30.7845 22.5444C31.5902 22.5511 32.3867 22.3723 33.1123 22.0219C33.8379 21.6714 34.4731 21.1587 34.9687 20.5234ZM38.5552 31.1121C38.5647 30.0215 38.852 28.9514 39.3899 28.0027C39.9277 27.0539 40.6985 26.2579 41.6293 25.6897C41.0419 24.8432 40.2652 24.1452 39.3611 23.6512C38.4569 23.1571 37.4501 22.8805 36.4204 22.8432C34.2002 22.6155 32.1508 24.1384 30.9695 24.1384C29.7883 24.1384 28.1231 22.8717 26.2729 22.9002C25.0634 22.94 23.8848 23.2927 22.8522 23.9237C21.8196 24.5548 20.9681 25.4427 20.3809 26.5009C17.876 30.8559 19.7404 37.3315 22.2453 40.8468C23.3838 42.5689 24.807 44.5187 26.6857 44.4475C28.5643 44.3763 29.1763 43.2805 31.3538 43.2805C33.5313 43.2805 34.2002 44.4475 36.0504 44.4048C37.9005 44.3621 39.2099 42.64 40.4054 40.9179C41.2522 39.6677 41.9138 38.3015 42.3694 36.8618C41.2415 36.3808 40.2792 35.5799 39.6013 34.5581C38.9235 33.5363 38.5598 32.3383 38.5552 31.1121Z" fill="white"/>
</g>
<defs>
<filter id="filter0_b_167_263" x="-25.7061" y="-26.2745" width="112.981" height="112.981" filterUnits="userSpaceOnUse" color-interpolation-filters="sRGB">
<feFlood flood-opacity="0" result="BackgroundImageFix"/>
<feGaussianBlur in="BackgroundImageFix" stdDeviation="13.1373"/>
<feComposite in2="SourceAlpha" operator="in" result="effect1_backgroundBlur_167_263"/>
<feBlend mode="normal" in="SourceGraphic" in2="effect1_backgroundBlur_167_263" result="shape"/>
</filter>
</defs>
</svg>
