<svg width="24" height="27" viewBox="0 0 24 27" fill="none" xmlns="http://www.w3.org/2000/svg">
<path fill-rule="evenodd" clip-rule="evenodd" d="M15.5555 2.87648L16.68 0.830284C16.7009 0.77938 16.7023 0.722552 16.684 0.670678C16.6656 0.618804 16.6287 0.575527 16.5804 0.54913C16.5321 0.522733 16.4758 0.51507 16.4222 0.527608C16.3687 0.540146 16.3216 0.572004 16.29 0.617084L15.1538 2.68408C14.1592 2.24649 13.0841 2.02155 11.9974 2.02368C10.8677 2.02368 9.80041 2.25898 8.84621 2.68148L7.70741 0.617084C7.69365 0.591248 7.67489 0.568403 7.65222 0.549878C7.62955 0.531353 7.60343 0.517516 7.57537 0.50917C7.54731 0.500825 7.51787 0.498137 7.48876 0.501264C7.45966 0.504391 7.43146 0.51327 7.40581 0.527384C7.37998 0.54115 7.35713 0.559911 7.33861 0.582578C7.32008 0.605246 7.30624 0.631368 7.2979 0.659428C7.28955 0.687488 7.28687 0.716927 7.28999 0.746034C7.29312 0.775141 7.302 0.803337 7.31611 0.828984L8.44191 2.87258C6.23191 4.00878 4.73691 6.17068 4.73821 8.65368L19.254 8.65238C19.254 6.16938 17.7642 4.01268 15.5555 2.87648ZM8.69411 6.03418C8.61439 6.0341 8.53546 6.01831 8.46184 5.98772C8.38821 5.95713 8.32133 5.91234 8.26502 5.85591C8.2087 5.79947 8.16406 5.7325 8.13363 5.65881C8.1032 5.58512 8.08758 5.50616 8.08766 5.42643C8.08775 5.34671 8.10354 5.26778 8.13412 5.19416C8.16471 5.12053 8.2095 5.05365 8.26594 4.99734C8.32237 4.94103 8.38935 4.89638 8.46304 4.86595C8.53673 4.83552 8.61569 4.8199 8.69541 4.81998C8.8566 4.81998 9.01118 4.88401 9.12516 4.99799C9.23913 5.11197 9.30316 5.26655 9.30316 5.42773C9.30316 5.58892 9.23913 5.7435 9.12516 5.85748C9.01118 5.97145 8.8566 6.03548 8.69541 6.03548M19.2046 9.21008L19.2072 19.6257C19.2072 20.251 18.8666 20.7918 18.3648 21.0908C18.1005 21.2519 17.7969 21.3374 17.4873 21.3378L16.3121 21.3391V24.8933C16.3119 25.1321 16.2585 25.368 16.1558 25.5836C16.053 25.7992 15.9035 25.9893 15.7182 26.1399C15.5328 26.2905 15.3162 26.398 15.0841 26.4544C14.852 26.5109 14.6103 26.5149 14.3764 26.4663C14.0141 26.3917 13.6885 26.1948 13.4542 25.9087C13.2199 25.6225 13.0911 25.2644 13.0894 24.8946V21.3391H10.9119V24.8946C10.9112 25.3209 10.7413 25.7294 10.4395 26.0305C10.1377 26.3315 9.72878 26.5004 9.30251 26.5001C8.87656 26.4994 8.46819 26.3302 8.16663 26.0293C7.86507 25.7285 7.69483 25.3205 7.69311 24.8946V21.3391H6.52181C5.84451 21.3391 5.26471 20.9491 4.98521 20.3823C4.86626 20.1482 4.8035 19.8896 4.80191 19.627L4.79931 9.21398L19.2046 9.21008ZM2.56201 8.91108C3.45121 8.91108 4.17401 9.62998 4.17401 10.5153V17.2363C4.17401 17.3463 4.16318 17.4543 4.14151 17.56C4.08808 17.8177 3.97227 18.0583 3.80423 18.2608C3.6362 18.4634 3.42106 18.6216 3.17766 18.7217C2.93427 18.8218 2.67005 18.8606 2.40815 18.8349C2.14624 18.8091 1.89465 18.7196 1.67541 18.574C1.45294 18.4286 1.27023 18.23 1.1438 17.9962C1.01737 17.7624 0.951215 17.5008 0.951312 17.235L0.950012 10.5153C0.950012 9.63128 1.67151 8.91108 2.56201 8.91108ZM21.438 8.90978C22.3272 8.90978 23.05 9.62738 23.05 10.514V17.2337C23.05 18.1216 22.3285 18.8392 21.4393 18.8392C20.5488 18.8392 19.8273 18.1216 19.8273 17.2337V10.5127C19.8273 9.62608 20.5475 8.90718 21.4367 8.90848M15.302 4.82258C15.384 4.81879 15.4659 4.83166 15.5428 4.86042C15.6197 4.88919 15.69 4.93324 15.7493 4.98993C15.8087 5.04662 15.856 5.11476 15.8883 5.19023C15.9206 5.26571 15.9372 5.34694 15.9372 5.42903C15.9372 5.51112 15.9206 5.59236 15.8883 5.66783C15.856 5.74331 15.8087 5.81145 15.7493 5.86814C15.69 5.92482 15.6197 5.96888 15.5428 5.99765C15.4659 6.02641 15.384 6.03928 15.302 6.03548C15.22 6.03928 15.1381 6.02641 15.0612 5.99765C14.9843 5.96888 14.9141 5.92482 14.8547 5.86814C14.7953 5.81145 14.7481 5.74331 14.7158 5.66783C14.6835 5.59236 14.6668 5.51112 14.6668 5.42903C14.6668 5.34694 14.6835 5.26571 14.7158 5.19023C14.7481 5.11476 14.7953 5.04662 14.8547 4.98993C14.9141 4.93324 14.9843 4.88919 15.0612 4.86042C15.1381 4.83166 15.22 4.81879 15.302 4.82258Z" fill="url(#paint0_linear_167_161)"/>
<defs>
<linearGradient id="paint0_linear_167_161" x1="0.950012" y1="13.5" x2="23.05" y2="13.5" gradientUnits="userSpaceOnUse">
<stop stop-color="#4D89F0"/>
<stop offset="1" stop-color="#9184EA"/>
</linearGradient>
</defs>
</svg>
