<svg width="22" height="25" viewBox="0 0 22 25" fill="none" xmlns="http://www.w3.org/2000/svg">
<path d="M14.675 3.9875C15.1476 3.44285 15.5079 2.81021 15.7353 2.12592C15.9627 1.44163 16.0526 0.71916 16 0C14.5492 0.117109 13.2025 0.799445 12.25 1.9C11.7939 2.42747 11.4482 3.0411 11.2335 3.70456C11.0188 4.36801 10.9394 5.0678 11 5.7625C11.7077 5.7684 12.4072 5.61137 13.0445 5.30357C13.6818 4.99578 14.2397 4.54547 14.675 3.9875ZM17.825 13.2875C17.8334 12.3297 18.0857 11.3898 18.5581 10.5565C19.0305 9.72323 19.7074 9.02407 20.525 8.525C20.009 7.78155 19.3269 7.16854 18.5328 6.73459C17.7387 6.30064 16.8544 6.05769 15.95 6.025C14 5.825 12.2 7.1625 11.1625 7.1625C10.125 7.1625 8.66251 6.05 7.03751 6.075C5.97517 6.10999 4.94004 6.41973 4.03307 6.97398C3.1261 7.52824 2.37827 8.3081 1.86251 9.2375C-0.337488 13.0625 1.30001 18.75 3.50001 21.8375C4.50001 23.35 5.75001 25.0625 7.40001 25C9.05001 24.9375 9.58751 23.975 11.5 23.975C13.4125 23.975 14 25 15.625 24.9625C17.25 24.925 18.4 23.4125 19.45 21.9C20.1938 20.8019 20.7748 19.602 21.175 18.3375C20.1844 17.915 19.3392 17.2116 18.7438 16.3141C18.1485 15.4167 17.829 14.3645 17.825 13.2875Z" fill="url(#paint0_linear_167_166)"/>
<defs>
<linearGradient id="paint0_linear_167_166" x1="0.820373" y1="12.5008" x2="21.175" y2="12.5008" gradientUnits="userSpaceOnUse">
<stop stop-color="#4D89F0"/>
<stop offset="1" stop-color="#9184EA"/>
</linearGradient>
</defs>
</svg>
