<svg width="26" height="27" viewBox="0 0 26 27" fill="none" xmlns="http://www.w3.org/2000/svg">
<g id="uiw:android" clip-path="url(#clip0_280_901)">
<path id="Vector" fill-rule="evenodd" clip-rule="evenodd" d="M16.5557 2.87648L17.6802 0.830284C17.7011 0.77938 17.7025 0.722552 17.6841 0.670678C17.6658 0.618804 17.6289 0.575527 17.5806 0.54913C17.5323 0.522733 17.476 0.51507 17.4224 0.527608C17.3688 0.540146 17.3218 0.572004 17.2902 0.617084L16.154 2.68408C15.1594 2.24649 14.0842 2.02155 12.9976 2.02368C11.8679 2.02368 10.8006 2.25898 9.8464 2.68148L8.7076 0.617084C8.69383 0.591248 8.67507 0.568403 8.6524 0.549878C8.62973 0.531353 8.60361 0.517516 8.57555 0.50917C8.54749 0.500825 8.51805 0.498137 8.48895 0.501264C8.45984 0.504391 8.43164 0.51327 8.406 0.527384C8.38016 0.54115 8.35731 0.559911 8.33879 0.582578C8.32026 0.605246 8.30643 0.631368 8.29808 0.659428C8.28974 0.687488 8.28705 0.716927 8.29018 0.746034C8.2933 0.775141 8.30218 0.803337 8.3163 0.828984L9.4421 2.87258C7.2321 4.00878 5.7371 6.17068 5.7384 8.65368L20.2542 8.65238C20.2542 6.16938 18.7644 4.01268 16.5557 2.87648ZM9.6943 6.03418C9.61457 6.0341 9.53564 6.01831 9.46202 5.98772C9.38839 5.95713 9.32152 5.91234 9.2652 5.85591C9.20889 5.79947 9.16424 5.7325 9.13381 5.65881C9.10338 5.58512 9.08776 5.50616 9.08785 5.42643C9.08793 5.34671 9.10372 5.26778 9.13431 5.19416C9.1649 5.12053 9.20969 5.05365 9.26612 4.99734C9.32256 4.94103 9.38953 4.89638 9.46322 4.86595C9.53691 4.83552 9.61587 4.8199 9.6956 4.81998C9.85678 4.81998 10.0114 4.88401 10.1253 4.99799C10.2393 5.11197 10.3033 5.26655 10.3033 5.42773C10.3033 5.58892 10.2393 5.7435 10.1253 5.85748C10.0114 5.97145 9.85678 6.03548 9.6956 6.03548M20.2048 9.21008L20.2074 19.6257C20.2074 20.251 19.8668 20.7918 19.365 21.0908C19.1006 21.2519 18.7971 21.3374 18.4875 21.3378L17.3123 21.3391V24.8933C17.3121 25.1321 17.2587 25.368 17.1559 25.5836C17.0532 25.7992 16.9037 25.9893 16.7183 26.1399C16.533 26.2905 16.3164 26.398 16.0843 26.4544C15.8522 26.5109 15.6104 26.5149 15.3766 26.4663C15.0143 26.3917 14.6887 26.1948 14.4544 25.9087C14.22 25.6225 14.0912 25.2644 14.0896 24.8946V21.3391H11.9121V24.8946C11.9114 25.3209 11.7415 25.7294 11.4397 26.0305C11.1379 26.3315 10.729 26.5004 10.3027 26.5001C9.87674 26.4994 9.46837 26.3302 9.16681 26.0293C8.86525 25.7285 8.69501 25.3205 8.6933 24.8946V21.3391H7.522C6.8447 21.3391 6.2649 20.9491 5.9854 20.3823C5.86645 20.1482 5.80369 19.8896 5.8021 19.627L5.7995 9.21398L20.2048 9.21008ZM3.5622 8.91108C4.4514 8.91108 5.1742 9.62998 5.1742 10.5153V17.2363C5.1742 17.3463 5.16336 17.4543 5.1417 17.56C5.08826 17.8177 4.97245 18.0583 4.80442 18.2608C4.63638 18.4634 4.42124 18.6216 4.17785 18.7217C3.93445 18.8218 3.67023 18.8606 3.40833 18.8349C3.14643 18.8091 2.89484 18.7196 2.6756 18.574C2.45312 18.4286 2.27041 18.23 2.14398 17.9962C2.01755 17.7624 1.9514 17.5008 1.9515 17.235L1.9502 10.5153C1.9502 9.63128 2.6717 8.91108 3.5622 8.91108ZM22.4382 8.90978C23.3274 8.90978 24.0502 9.62738 24.0502 10.514V17.2337C24.0502 18.1216 23.3287 18.8392 22.4395 18.8392C21.549 18.8392 20.8275 18.1216 20.8275 17.2337V10.5127C20.8275 9.62608 21.5477 8.90718 22.4369 8.90848M16.3022 4.82258C16.3842 4.81879 16.4661 4.83166 16.543 4.86042C16.6199 4.88919 16.6901 4.93324 16.7495 4.98993C16.8089 5.04662 16.8562 5.11476 16.8884 5.19023C16.9207 5.26571 16.9374 5.34694 16.9374 5.42903C16.9374 5.51112 16.9207 5.59236 16.8884 5.66783C16.8562 5.74331 16.8089 5.81145 16.7495 5.86814C16.6901 5.92482 16.6199 5.96888 16.543 5.99765C16.4661 6.02641 16.3842 6.03928 16.3022 6.03548C16.2202 6.03928 16.1383 6.02641 16.0614 5.99765C15.9845 5.96888 15.9142 5.92482 15.8549 5.86814C15.7955 5.81145 15.7482 5.74331 15.7159 5.66783C15.6837 5.59236 15.667 5.51112 15.667 5.42903C15.667 5.34694 15.6837 5.26571 15.7159 5.19023C15.7482 5.11476 15.7955 5.04662 15.8549 4.98993C15.9142 4.93324 15.9845 4.88919 16.0614 4.86042C16.1383 4.83166 16.2202 4.81879 16.3022 4.82258Z" fill="url(#paint0_linear_280_901)"/>
</g>
<defs>
<linearGradient id="paint0_linear_280_901" x1="1.9502" y1="13.5" x2="24.0502" y2="13.5" gradientUnits="userSpaceOnUse">
<stop stop-color="#4D89F0"/>
<stop offset="1" stop-color="#9184EA"/>
</linearGradient>
<clipPath id="clip0_280_901">
<rect width="26" height="26" fill="white" transform="translate(0 0.5)"/>
</clipPath>
</defs>
</svg>
